<svg xmlns="http://www.w3.org/2000/svg" viewBox="0 0 46 46"><defs><style>.cls-1{fill:#a4b0c0;}.cls-2{fill:#d0d7df;}.cls-3{fill:#49aaee;}.cls-4{fill:#d8d8d8;}</style></defs><g id="Layer_2" data-name="Layer 2"><g id="_50-Stamp" data-name="50-Stamp"><path class="cls-1" d="M46,39v3a4,4,0,0,1-4,4H39a4,4,0,0,0-8,0H27a4,4,0,0,0-8,0H15a4,4,0,0,0-8,0H4a4,4,0,0,1-4-4V39a4,4,0,0,0,0-8V27a4,4,0,0,0,0-8V15A4,4,0,0,0,0,7V4A4,4,0,0,1,4,0H7a4,4,0,0,0,8,0h4a4,4,0,0,0,8,0h4a4,4,0,0,0,8,0h3a4,4,0,0,1,4,4V7a4,4,0,0,0,0,8v4a4,4,0,0,0,0,8v4a4,4,0,0,0,0,8Z"/><path class="cls-2" d="M37,10v7a8,8,0,0,1-8-8h7A1,1,0,0,1,37,10Z"/><path class="cls-3" d="M37,17v6A14,14,0,0,1,23,9h6A8,8,0,0,0,37,17Z"/><path class="cls-4" d="M37,23V36a1,1,0,0,1-1,1H10a1,1,0,0,1-1-1V10a1,1,0,0,1,1-1H23A14,14,0,0,0,37,23Z"/><path class="cls-2" d="M23,31a3.18,3.18,0,0,1-2.5-1.34c-.44-.5-.61-.66-1-.66s-.56.16-1,.66A3.2,3.2,0,0,1,16,31a3.21,3.21,0,0,1-2.51-1.34c-.43-.5-.61-.66-1-.66s-.56.16-1,.66A3.17,3.17,0,0,1,9,31a1,1,0,0,1,0-2c.39,0,.56-.16,1-.66A3.18,3.18,0,0,1,12.5,27,3.21,3.21,0,0,1,15,28.34c.43.5.61.66,1,.66s.56-.16,1-.66A3.2,3.2,0,0,1,19.5,27,3.17,3.17,0,0,1,22,28.34c.44.5.61.66,1,.66a1,1,0,0,1,0,2Z"/><path class="cls-2" d="M23,24a3.18,3.18,0,0,1-2.5-1.34c-.44-.5-.61-.66-1-.66s-.56.16-1,.66A3.2,3.2,0,0,1,16,24a3.21,3.21,0,0,1-2.51-1.34c-.43-.5-.61-.66-1-.66s-.56.16-1,.66A3.17,3.17,0,0,1,9,24a1,1,0,0,1,0-2c.39,0,.56-.16,1-.66A3.18,3.18,0,0,1,12.5,20,3.21,3.21,0,0,1,15,21.34c.43.5.61.66,1,.66s.56-.16,1-.66A3.2,3.2,0,0,1,19.5,20,3.17,3.17,0,0,1,22,21.34c.44.5.61.66,1,.66a1,1,0,0,1,0,2Z"/><path class="cls-2" d="M23,38a3.18,3.18,0,0,1-2.5-1.34c-.44-.5-.61-.66-1-.66s-.56.16-1,.66A3.2,3.2,0,0,1,16,38a3.21,3.21,0,0,1-2.51-1.34c-.43-.5-.61-.66-1-.66s-.56.16-1,.66A3.17,3.17,0,0,1,9,38a1,1,0,0,1,0-2c.39,0,.56-.16,1-.66A3.18,3.18,0,0,1,12.5,34,3.21,3.21,0,0,1,15,35.34c.43.5.61.66,1,.66s.56-.16,1-.66A3.2,3.2,0,0,1,19.5,34,3.17,3.17,0,0,1,22,35.34c.44.5.61.66,1,.66a1,1,0,0,1,0,2Z"/></g></g></svg>