<svg xmlns="http://www.w3.org/2000/svg" viewBox="0 0 34 46"><defs><style>.cls-1{fill:#d0d7df;}.cls-2{fill:#49aaee;}.cls-3{fill:#875757;}.cls-4{fill:#a67474;}.cls-5{fill:#8e6565;}</style></defs><g id="Layer_2" data-name="Layer 2"><g id="_14-Smartphone" data-name="14-Smartphone"><path class="cls-1" d="M30,39v3a4,4,0,0,1-4,4H4a4,4,0,0,1-4-4V39Z"/><path class="cls-1" d="M30,4V7H0V4A4,4,0,0,1,4,0H26A4,4,0,0,1,30,4Z"/><polygon class="cls-2" points="30 39 0 39 0 7 30 7 30 12 30 39"/><path class="cls-3" d="M34,15V31a2,2,0,0,1-.59,1.41L33,32l-4-4-6-6-.31-.54Z"/><path class="cls-3" d="M17.31,21.46,17,22l-6,6L7,32l-.66.12A2,2,0,0,1,6,31V15Z"/><path class="cls-4" d="M33,32l.41.41A2,2,0,0,1,32,33H8a2,2,0,0,1-1.66-.88L7,32l4-4,6-6,.31-.54L20,23l2.69-1.54L23,22l6,6Z"/><path class="cls-5" d="M32,13a2,2,0,0,1,2,2L22.69,21.46,20,23l-2.69-1.54L6,15a2,2,0,0,1,2-2Z"/></g></g></svg>