<svg xmlns="http://www.w3.org/2000/svg" viewBox="0 0 46 43"><defs><style>.cls-1{fill:#bec4cc;}.cls-2{fill:#a4b0c0;}.cls-3{fill:#d0d7df;}.cls-4{fill:#8e6565;}.cls-5{fill:#875757;}</style></defs><g id="Layer_2" data-name="Layer 2"><g id="_12-Email-face" data-name="12-Email-face"><path class="cls-1" d="M46,11V39a4,4,0,0,1-1.17,2.83L38,35,27,24l-.28-.43Z"/><path class="cls-2" d="M38,35l6.83,6.83A4,4,0,0,1,42,43H4a4,4,0,0,1-2.83-1.17L8,35,19,24l.25-.39L23,26l3.72-2.43L27,24Z"/><path class="cls-1" d="M19.25,23.61,19,24,8,35,1.17,41.83A4,4,0,0,1,0,39V13a3.94,3.94,0,0,1,.18-1.19L1,12Z"/><path class="cls-3" d="M46,11,26.72,23.57,23,26l-3.75-2.39L1,12l-.82-.19A4,4,0,0,1,4,9H41C45,9,46,11,46,11Z"/><circle class="cls-4" cx="34" cy="12" r="12"/><path class="cls-5" d="M32,10a1,1,0,0,1-1-1,1,1,0,0,0-2,0,1,1,0,0,1-2,0,3,3,0,0,1,6,0A1,1,0,0,1,32,10Z"/><path class="cls-5" d="M40,10a1,1,0,0,1-1-1,1,1,0,0,0-2,0,1,1,0,0,1-2,0,3,3,0,0,1,6,0A1,1,0,0,1,40,10Z"/><path class="cls-5" d="M34,20a7,7,0,0,1-7-7,1,1,0,0,1,2,0,5,5,0,0,0,10,0,1,1,0,0,1,2,0A7,7,0,0,1,34,20Z"/></g></g></svg>