<svg xmlns="http://www.w3.org/2000/svg" viewBox="0 0 46 46"><defs><style>.cls-1{fill:#49aaee;}.cls-2{fill:#4c7ee7;}.cls-3{fill:#d8d8d8;}</style></defs><g id="Layer_2" data-name="Layer 2"><g id="_41-Mail_Box" data-name="41-Mail Box"><path class="cls-1" d="M46,43a3,3,0,0,1-3,3H3a3,3,0,0,1-3-3V3A2.94,2.94,0,0,1,3,0H43a2.94,2.94,0,0,1,3,3Z"/><path class="cls-2" d="M42,5V25H33a3,3,0,0,0-3,3v4H16V28a3,3,0,0,0-3-3H4V5A1,1,0,0,1,5,4H41A1,1,0,0,1,42,5Z"/><path class="cls-3" d="M30,37v3a1,1,0,0,1-1,1H17a1,1,0,0,1-1-1V37Z"/><path class="cls-2" d="M33,38H13a1,1,0,0,1,0-2H33a1,1,0,0,1,0,2Z"/></g></g></svg>