<svg xmlns="http://www.w3.org/2000/svg" viewBox="0 0 46 44"><defs><style>.cls-1{fill:#875757;}.cls-2{fill:#a67474;}.cls-3{fill:#8e6565;}</style></defs><g id="Layer_2" data-name="Layer 2"><g id="_8-Email-sent" data-name="8-Email-sent"><path class="cls-1" d="M46,2V30a4,4,0,0,1-1.17,2.83L38,26,27,15l-.28-.43Z"/><path class="cls-2" d="M38,26l6.83,6.83A4,4,0,0,1,42,34H4a4,4,0,0,1-2.83-1.17L8,26,19,15l.25-.39L23,17l3.72-2.43L27,15Z"/><path class="cls-1" d="M19.25,14.61,19,15,8,26,1.17,32.83A4,4,0,0,1,0,30V4A3.94,3.94,0,0,1,.18,2.81L1,3Z"/><path class="cls-3" d="M46,2,26.72,14.57,23,17l-3.75-2.39L1,3,.18,2.81A4,4,0,0,1,4,0H41C45,0,46,2,46,2Z"/><path class="cls-2" d="M23,38a1,1,0,0,1-1-1V33a1,1,0,0,1,2,0v4A1,1,0,0,1,23,38Z"/><path class="cls-1" d="M23,44a1,1,0,0,1-1-1V41a1,1,0,0,1,2,0v2A1,1,0,0,1,23,44Z"/><path class="cls-3" d="M28,42a1,1,0,0,0,2,0V34H28Z"/><path class="cls-3" d="M16,42a1,1,0,0,0,2,0V34H16Z"/></g></g></svg>