<svg xmlns="http://www.w3.org/2000/svg" viewBox="0 0 46 44"><defs><style>.cls-1{fill:#875757;}.cls-2{fill:#a67474;}.cls-3{fill:#8e6565;}.cls-4{fill:#49aaee;}.cls-5{fill:#2ebc70;}.cls-6{fill:#35dc86;}</style></defs><g id="Layer_2" data-name="Layer 2"><g id="_20-Email-media" data-name="20-Email-media"><path class="cls-1" d="M46,2V30a4,4,0,0,1-1.17,2.83L38,26,27,15l-.28-.43Z"/><path class="cls-2" d="M38,26l6.83,6.83A4,4,0,0,1,42,34H4a4,4,0,0,1-2.83-1.17L8,26,19,15l.25-.39L23,17l3.72-2.43L27,15Z"/><path class="cls-1" d="M19.25,14.61,19,15,8,26,1.17,32.83A4,4,0,0,1,0,30V4A3.94,3.94,0,0,1,.18,2.81L1,3Z"/><path class="cls-3" d="M46,2,26.72,14.57,23,17l-3.75-2.39L1,3,.18,2.81A4,4,0,0,1,4,0H41C45,0,46,2,46,2Z"/><circle class="cls-4" cx="34" cy="32" r="12"/><circle class="cls-3" cx="35.5" cy="26.5" r="2.5"/><path class="cls-5" d="M42,35l2.61,2.61A12,12,0,0,1,42,41l-3-3-2.94-2.94,3-3Z"/><path class="cls-6" d="M34,44a12,12,0,0,1-8.94-4h0l8-8,3,3L39,38l3,3A11.91,11.91,0,0,1,34,44Z"/></g></g></svg>