<svg xmlns="http://www.w3.org/2000/svg" viewBox="0 0 46 44"><defs><style>.cls-1{fill:#875757;}.cls-2{fill:#a67474;}.cls-3{fill:#8e6565;}.cls-4{fill:#d0d7df;}.cls-5{fill:#49aaee;}.cls-6{fill:#3387d6;}</style></defs><g id="Layer_2" data-name="Layer 2"><g id="_19-Email-time" data-name="19-Email-time"><path class="cls-1" d="M46,2V30a4,4,0,0,1-1.17,2.83L38,26,27,15l-.28-.43Z"/><path class="cls-2" d="M38,26l6.83,6.83A4,4,0,0,1,42,34H4a4,4,0,0,1-2.83-1.17L8,26,19,15l.25-.39L23,17l3.72-2.43L27,15Z"/><path class="cls-1" d="M19.25,14.61,19,15,8,26,1.17,32.83A4,4,0,0,1,0,30V4A3.94,3.94,0,0,1,.18,2.81L1,3Z"/><path class="cls-3" d="M46,2,26.72,14.57,23,17l-3.75-2.39L1,3,.18,2.81A4,4,0,0,1,4,0H41C45,0,46,2,46,2Z"/><circle class="cls-4" cx="34" cy="32" r="12"/><circle class="cls-5" cx="34" cy="32" r="8"/><path class="cls-6" d="M36,35a1,1,0,0,1-.71-.29l-2-2A1,1,0,0,1,33,32V29a1,1,0,0,1,2,0v2.59l1.71,1.7a1,1,0,0,1,0,1.42A1,1,0,0,1,36,35Z"/></g></g></svg>