<svg xmlns="http://www.w3.org/2000/svg" viewBox="0 0 46 45"><defs><style>.cls-1{fill:#a4b0c0;}.cls-2{fill:#d0d7df;}.cls-3{fill:#fa5c66;}.cls-4{fill:#2ebc70;}.cls-5{fill:#35dc86;}.cls-6{fill:#768ba0;}.cls-7{fill:#6e8295;}.cls-8{fill:none;}.cls-9{fill:#d8d8d8;}</style></defs><g id="Layer_2" data-name="Layer 2"><g id="_46-Mail_Box" data-name="46-Mail Box"><path class="cls-1" d="M25,37v7a1,1,0,0,1-1,1H22a1,1,0,0,1-1-1V37Z"/><polygon class="cls-2" points="22 32 25 32 25 37 21 37 21 32 22 32"/><path class="cls-3" d="M36,7v4H30V0h4a2,2,0,0,1,2,2Z"/><path class="cls-4" d="M30,10h6V6h6a4,4,0,0,1,4,4V32H22V6h8Z"/><path class="cls-5" d="M22,32H0V10A4,4,0,0,1,4,6H22Z"/><path class="cls-6" d="M26,38H20a1,1,0,0,1,0-2h6a1,1,0,0,1,0,2Z"/><path class="cls-4" d="M18,29H4a1,1,0,0,1,0-2H18a1,1,0,0,1,0,2Z"/><rect class="cls-6" x="4" y="15" width="14" height="9"/><path class="cls-2" d="M18,11v4H4V11a1,1,0,0,1,1-1H17A1,1,0,0,1,18,11Z"/><rect class="cls-7" x="4" y="15" width="14" height="2"/><path class="cls-8" d="M34,1H31v9h4V2A.91.91,0,0,0,34,1Z"/><path class="cls-9" d="M30,17H29a1,1,0,0,0,0,2h2a1,1,0,0,0,1-1V10H30Z"/></g></g></svg>