<svg xmlns="http://www.w3.org/2000/svg" viewBox="0 0 46 46"><defs><style>.cls-1{fill:#d8d8d8;}.cls-2{fill:#a4b0c0;}.cls-3{fill:#d0d7df;}.cls-4{fill:#8e6565;}.cls-5{fill:#875757;}</style></defs><g id="Layer_2" data-name="Layer 2"><g id="_31-Email-money" data-name="31-Email-money"><path class="cls-1" d="M40,18,23,29,6,18V1A1,1,0,0,1,7,0H39a1,1,0,0,1,1,1Z"/><polygon class="cls-2" points="6 18 0 14 6 8 6 18"/><polygon class="cls-3" points="46 14 40 18 40 8 46 14"/><path class="cls-3" d="M40,17.91,46,14V42a4,4,0,0,1-1.17,2.83L38,38,27,27l-.28-.43Z"/><path class="cls-2" d="M38,38l6.83,6.83A4,4,0,0,1,42,46H4a4,4,0,0,1-2.83-1.17L8,38,19,27l.28-.43L23,29l3.72-2.43L27,27Z"/><path class="cls-3" d="M19.28,26.57,19,27,8,38,1.17,44.83A4,4,0,0,1,0,42V14Z"/><circle class="cls-4" cx="34" cy="12" r="12"/><path class="cls-5" d="M38,10a1,1,0,0,0,1-1V8a3,3,0,0,0-3-3H35V4a1,1,0,0,0-2,0V5H32a3,3,0,0,0-3,3v2a3,3,0,0,0,3,3h4a1,1,0,0,1,1,1v2a1,1,0,0,1-1,1H32a1,1,0,0,1-1-1V15a1,1,0,0,0-2,0v1a3,3,0,0,0,3,3h1v1a1,1,0,0,0,2,0V19h1a3,3,0,0,0,3-3V14a3,3,0,0,0-3-3H32a1,1,0,0,1-1-1V8a1,1,0,0,1,1-1h4a1,1,0,0,1,1,1V9A1,1,0,0,0,38,10Z"/></g></g></svg>