<svg xmlns="http://www.w3.org/2000/svg" viewBox="0 0 46 40"><defs><style>.cls-1{fill:#875757;}.cls-2{fill:#a67474;}.cls-3{fill:#8e6565;}.cls-4{fill:#49aaee;}.cls-5{fill:#2ebc70;}.cls-6{fill:#35dc86;}.cls-7{fill:#d8d8d8;}</style></defs><g id="Layer_2" data-name="Layer 2"><g id="_47-Email" data-name="47-Email"><path class="cls-1" d="M46,2V30a4,4,0,0,1-1.17,2.83L38,26,27,15l-.28-.43Z"/><path class="cls-2" d="M38,26l6.83,6.83A4,4,0,0,1,42,34H4a4,4,0,0,1-2.83-1.17L8,26,19,15l.25-.39L23,17l3.72-2.43L27,15Z"/><path class="cls-1" d="M19.25,14.61,19,15,8,26,1.17,32.83A4,4,0,0,1,0,30V4A3.94,3.94,0,0,1,.18,2.81L1,3Z"/><path class="cls-3" d="M46,2,26.72,14.57,23,17l-3.75-2.39L1,3,.18,2.81A4,4,0,0,1,4,0H41C45,0,46,2,46,2Z"/><path class="cls-4" d="M46,26v9l-5-5-3,3-2-2-6,6V26a2,2,0,0,1,2-2H44A2,2,0,0,1,46,26Z"/><path class="cls-5" d="M46,38a2,2,0,0,1-1.18,1.82L38,33l3-3,5,5Z"/><path class="cls-6" d="M44.82,39.82A1.89,1.89,0,0,1,44,40H32a2,2,0,0,1-2-2V37l6-6,2,2Z"/><path class="cls-7" d="M30,38a3.6,3.6,0,0,1-2.71-1.29C26.8,36.22,26.56,36,26,36s-.8.22-1.29.71a3.49,3.49,0,0,1-5.42,0C18.8,36.22,18.56,36,18,36a1,1,0,0,1,0-2,3.6,3.6,0,0,1,2.71,1.29c.49.49.73.71,1.29.71s.8-.22,1.29-.71a3.49,3.49,0,0,1,5.42,0c.49.49.73.71,1.29.71a1,1,0,0,1,0,2Z"/><path class="cls-7" d="M30,31a3.59,3.59,0,0,1-2.71-1.29C26.8,29.22,26.56,29,26,29s-.81.22-1.3.71a3.48,3.48,0,0,1-5.41,0C18.8,29.22,18.56,29,18,29a1,1,0,0,1,0-2,3.6,3.6,0,0,1,2.71,1.29c.49.49.73.71,1.29.71s.8-.22,1.29-.71a3.49,3.49,0,0,1,5.42,0c.49.49.73.71,1.29.71a1,1,0,0,1,0,2Z"/></g></g></svg>