<svg xmlns="http://www.w3.org/2000/svg" viewBox="0 0 46 32"><defs><style>.cls-1{fill:#a4b0c0;}.cls-2{fill:#2ebc70;}.cls-3{fill:#35dc86;}.cls-4{fill:#49aaee;}.cls-5{fill:#8e6565;}.cls-6{fill:#768ba0;}</style></defs><g id="Layer_2" data-name="Layer 2"><g id="_48-Stamp" data-name="48-Stamp"><path class="cls-1" d="M46,4V28a4,4,0,0,1-4,4H18a4,4,0,0,1-4-4V4a4,4,0,0,1,4-4H42A4,4,0,0,1,46,4Z"/><path class="cls-2" d="M42,24v2a2,2,0,0,1-2,2l-7-7,3-3Z"/><polygon class="cls-3" points="40 28 20 28 30 18 33 21 40 28"/><path class="cls-4" d="M42,6V24l-6-6-3,3-3-3L20,28a2,2,0,0,1-2-2V6a2,2,0,0,1,2-2H40A2,2,0,0,1,42,6Z"/><circle class="cls-5" cx="26" cy="12" r="3"/><path class="cls-6" d="M15,18a3.18,3.18,0,0,1-2.5-1.34c-.44-.5-.61-.66-1-.66s-.56.16-1,.66A3.2,3.2,0,0,1,8,18,3.21,3.21,0,0,1,5.5,16.66c-.43-.5-.61-.66-1-.66s-.56.16-1,.66A3.17,3.17,0,0,1,1,18a1,1,0,0,1,0-2c.39,0,.56-.16,1-.66A3.18,3.18,0,0,1,4.5,14,3.21,3.21,0,0,1,7,15.34c.43.5.61.66,1,.66s.56-.16,1-.66A3.2,3.2,0,0,1,11.5,14,3.17,3.17,0,0,1,14,15.34c.44.5.61.66,1,.66a1,1,0,0,1,0,2Z"/><path class="cls-6" d="M15,11a3.18,3.18,0,0,1-2.5-1.34c-.44-.5-.61-.66-1-.66s-.56.16-1,.66A3.2,3.2,0,0,1,8,11,3.21,3.21,0,0,1,5.5,9.66c-.43-.5-.61-.66-1-.66s-.56.16-1,.66A3.17,3.17,0,0,1,1,11,1,1,0,0,1,1,9c.39,0,.56-.16,1-.66A3.18,3.18,0,0,1,4.5,7,3.21,3.21,0,0,1,7,8.34c.43.5.61.66,1,.66s.56-.16,1-.66A3.2,3.2,0,0,1,11.5,7,3.17,3.17,0,0,1,14,8.34c.44.5.61.66,1,.66a1,1,0,0,1,0,2Z"/><path class="cls-6" d="M15,25a3.18,3.18,0,0,1-2.5-1.34c-.44-.5-.61-.66-1-.66s-.56.16-1,.66A3.2,3.2,0,0,1,8,25,3.21,3.21,0,0,1,5.5,23.66c-.43-.5-.61-.66-1-.66s-.56.16-1,.66A3.17,3.17,0,0,1,1,25a1,1,0,0,1,0-2c.39,0,.56-.16,1-.66A3.18,3.18,0,0,1,4.5,21,3.21,3.21,0,0,1,7,22.34c.43.5.61.66,1,.66s.56-.16,1-.66A3.2,3.2,0,0,1,11.5,21,3.17,3.17,0,0,1,14,22.34c.44.5.61.66,1,.66a1,1,0,0,1,0,2Z"/></g></g></svg>