<svg xmlns="http://www.w3.org/2000/svg" viewBox="0 0 46 46"><defs><style>.cls-1{fill:#a4b0c0;}.cls-2{fill:#d8d8d8;}.cls-3{fill:#49aaee;}.cls-4{fill:#875757;}.cls-5{fill:#a67474;}.cls-6{fill:#8e6565;}.cls-7{fill:#929dac;}</style></defs><g id="Layer_2" data-name="Layer 2"><g id="_17-Email" data-name="17-Email"><path class="cls-1" d="M33,44v1a1,1,0,0,1-1,1H14a1,1,0,0,1-1-1V44l3-2V36H30v6Z"/><path class="cls-2" d="M46,27v5a4,4,0,0,1-4,4H4a4,4,0,0,1-4-4V27Z"/><path class="cls-1" d="M46,27H0V4A4,4,0,0,1,4,0H42a4,4,0,0,1,4,4Z"/><path class="cls-3" d="M41,4H5A1,1,0,0,0,4,5V27H42V5A1,1,0,0,0,41,4Z"/><path class="cls-4" d="M37,2V18a2,2,0,0,1-.59,1.41L36,19l-4-4L26,9l-.31-.54Z"/><path class="cls-4" d="M20.31,8.46,20,9l-6,6-4,4-.66.12A2,2,0,0,1,9,18V2Z"/><path class="cls-5" d="M36,19l.41.41A2,2,0,0,1,35,20H11a2,2,0,0,1-1.66-.88L10,19l4-4,6-6,.31-.54L23,10l2.69-1.54L26,9l6,6Z"/><path class="cls-6" d="M35,0a2,2,0,0,1,2,2L25.69,8.46,23,10,20.31,8.46,9,2a2,2,0,0,1,2-2Z"/><rect class="cls-7" x="16" y="36" width="14" height="2"/></g></g></svg>