<svg xmlns="http://www.w3.org/2000/svg" viewBox="0 0 47 47"><defs><style>.cls-1{fill:#d8d8d8;}.cls-2{fill:#875757;}.cls-3{fill:#8e6565;}.cls-4{fill:#768ba0;}.cls-5{fill:#a4b0c0;}.cls-6{fill:#49aaee;}.cls-7{fill:#d0d7df;}.cls-8{fill:#3398d6;}.cls-9{fill:#97a3b2;}</style></defs><g id="Layer_2" data-name="Layer 2"><g id="_34-Email-search" data-name="34-Email-search"><path class="cls-1" d="M40,19,23,30,6,19V2A1,1,0,0,1,7,1H39a1,1,0,0,1,1,1Z"/><polygon class="cls-2" points="6 19 0 15 6 9 6 19"/><polygon class="cls-2" points="46 15 40 19 40 9 46 15"/><path class="cls-3" d="M40,18.91,46,15V43a4,4,0,0,1-1.17,2.83L38,39,27,28l-.28-.43Z"/><path class="cls-2" d="M38,39l6.83,6.83A4,4,0,0,1,42,47H4a4,4,0,0,1-2.83-1.17L8,39,19,28l.28-.43L23,30l3.72-2.43L27,28Z"/><path class="cls-3" d="M19.28,27.57,19,28,8,39,1.17,45.83A4,4,0,0,1,0,43V15Z"/><path class="cls-4" d="M35,25a1,1,0,0,0-2,0v6h2Z"/><rect class="cls-5" x="31" y="31" width="6" height="12" rx="2"/><circle class="cls-6" cx="34" cy="13" r="12"/><path class="cls-7" d="M34,26A13,13,0,1,1,47,13,13,13,0,0,1,34,26ZM34,2A11,11,0,1,0,45,13,11,11,0,0,0,34,2Z"/><path class="cls-8" d="M27,14a1,1,0,0,1-1-1,8,8,0,0,1,8-8,1,1,0,0,1,0,2,6,6,0,0,0-6,6A1,1,0,0,1,27,14Z"/><rect class="cls-9" x="31" y="33" width="6" height="2"/></g></g></svg>