<svg xmlns="http://www.w3.org/2000/svg" viewBox="0 0 46 44"><defs><style>.cls-1{fill:#bec4cc;}.cls-2{fill:#a4b0c0;}.cls-3{fill:#d0d7df;}.cls-4{fill:#8e6565;}.cls-5{fill:#875757;}</style></defs><g id="Layer_2" data-name="Layer 2"><g id="_16-Business_mail" data-name="16-Business mail"><path class="cls-1" d="M46,2V30a4,4,0,0,1-1.17,2.83L38,26,27,15l-.28-.43Z"/><path class="cls-2" d="M38,26l6.83,6.83A4,4,0,0,1,42,34H4a4,4,0,0,1-2.83-1.17L8,26,19,15l.25-.39L23,17l3.72-2.43L27,15Z"/><path class="cls-1" d="M19.25,14.61,19,15,8,26,1.17,32.83A4,4,0,0,1,0,30V4A3.94,3.94,0,0,1,.18,2.81L1,3Z"/><path class="cls-3" d="M46,2,26.72,14.57,23,17l-3.75-2.39L1,3,.18,2.81A4,4,0,0,1,4,0H41C45,0,46,2,46,2Z"/><circle class="cls-4" cx="34" cy="32" r="12"/><path class="cls-5" d="M38,30a1,1,0,0,0,1-1V28a3,3,0,0,0-3-3H35V24a1,1,0,0,0-2,0v1H32a3,3,0,0,0-3,3v2a3,3,0,0,0,3,3h4a1,1,0,0,1,1,1v2a1,1,0,0,1-1,1H32a1,1,0,0,1-1-1V35a1,1,0,0,0-2,0v1a3,3,0,0,0,3,3h1v1a1,1,0,0,0,2,0V39h1a3,3,0,0,0,3-3V34a3,3,0,0,0-3-3H32a1,1,0,0,1-1-1V28a1,1,0,0,1,1-1h4a1,1,0,0,1,1,1v1A1,1,0,0,0,38,30Z"/></g></g></svg>