<svg xmlns="http://www.w3.org/2000/svg" viewBox="0 0 46 46"><defs><style>.cls-1{fill:#d8d8d8;}.cls-2{fill:#875757;}.cls-3{fill:#8e6565;}.cls-4{fill:#49aaee;}.cls-5{fill:#2ebc70;}.cls-6{fill:#35dc86;}</style></defs><g id="Layer_2" data-name="Layer 2"><g id="_36-Email-photo" data-name="36-Email-photo"><path class="cls-1" d="M40,18,23,29,6,18V1A1,1,0,0,1,7,0H39a1,1,0,0,1,1,1Z"/><polygon class="cls-2" points="6 18 0 14 6 8 6 18"/><polygon class="cls-2" points="46 14 40 18 40 12.95 40 8 46 14"/><path class="cls-3" d="M40,17.91,46,14V42a4,4,0,0,1-1.17,2.83L27,27l-.28-.43Z"/><path class="cls-2" d="M44.83,44.83A4,4,0,0,1,42,46H4a4,4,0,0,1-2.83-1.17L19,27l.28-.43L23,29l3.72-2.43L27,27Z"/><path class="cls-3" d="M19.28,26.57,19,27,1.17,44.83A4,4,0,0,1,0,42V14Z"/><circle class="cls-4" cx="34" cy="12" r="12"/><circle class="cls-3" cx="35.5" cy="6.5" r="2.5"/><path class="cls-5" d="M44.61,17.61A12,12,0,0,1,42,21l-5.91-5.91,3-3Z"/><path class="cls-6" d="M34,24a12,12,0,0,1-8.94-4h0l8-8,3,3L42,21A11.91,11.91,0,0,1,34,24Z"/></g></g></svg>