<svg xmlns="http://www.w3.org/2000/svg" viewBox="0 0 46 46"><defs><style>.cls-1{fill:#d8d8d8;}.cls-2{fill:#875757;}.cls-3{fill:#8e6565;}.cls-4{fill:#94b28d;}</style></defs><g id="Layer_2" data-name="Layer 2"><g id="_32-Email-exchange" data-name="32-Email-exchange"><path class="cls-1" d="M40,18,23,29,6,18V1A1,1,0,0,1,7,0H39a1,1,0,0,1,1,1Z"/><polygon class="cls-2" points="6 18 0 14 6 8 6 18"/><polygon class="cls-2" points="46 14 40 18 40 8 46 14"/><path class="cls-3" d="M40,17.91,46,14V42a4,4,0,0,1-1.17,2.83L38,38,27,27l-.28-.43Z"/><path class="cls-2" d="M38,38l6.83,6.83A4,4,0,0,1,42,46H4a4,4,0,0,1-2.83-1.17L8,38,19,27l.28-.43L23,29l3.72-2.43L27,27Z"/><path class="cls-3" d="M19.28,26.57,19,27,8,38,1.17,44.83A4,4,0,0,1,0,42V14Z"/><circle class="cls-4" cx="34" cy="12" r="12"/><path class="cls-1" d="M35,3.48a1.65,1.65,0,0,0,0,2.31l2.12,2.12H32.91A4.78,4.78,0,0,0,28,12.82v6.54a1.64,1.64,0,1,0,3.27,0V12.82a1.5,1.5,0,0,1,1.64-1.64h4.23L35,13.3a1.64,1.64,0,0,0,2.32,2.31l4.91-4.91a1.58,1.58,0,0,0,.35-.53,1.57,1.57,0,0,0,0-1.25,1.58,1.58,0,0,0-.35-.53L37.34,3.48A1.64,1.64,0,0,0,35,3.48Z"/></g></g></svg>