<svg xmlns="http://www.w3.org/2000/svg" viewBox="0 0 46 40"><defs><style>.cls-1{fill:#875757;}.cls-2{fill:#8e6565;}.cls-3{fill:#a67474;}</style></defs><g id="Layer_2" data-name="Layer 2"><g id="_15-Email" data-name="15-Email"><path class="cls-1" d="M46,2V30a4,4,0,0,1-1.17,2.83L38,26,27,15l-.28-.43Z"/><path class="cls-1" d="M19.25,14.61,19,15,8,26,1.17,32.83A4,4,0,0,1,0,30V4A3.94,3.94,0,0,1,.18,2.81L1,3Z"/><path class="cls-2" d="M46,2,26.72,14.57,23,17l-3.75-2.39L1,3,.18,2.81A4,4,0,0,1,4,0H41C45,0,46,2,46,2Z"/><path class="cls-3" d="M38,26,27,15l-.28-.43L23,17l-3.75-2.39L19,15,8,26,1.17,32.83A4,4,0,0,0,4,34H22v6l6-6H42a4,4,0,0,0,2.83-1.17Z"/></g></g></svg>