<svg xmlns="http://www.w3.org/2000/svg" viewBox="0 0 46 43"><defs><style>.cls-1{fill:#875757;}.cls-2{fill:#a67474;}.cls-3{fill:#8e6565;}.cls-4{fill:#7688a5;}.cls-5{fill:#d8d8d8;}</style></defs><g id="Layer_2" data-name="Layer 2"><g id="_2-Email-check" data-name="2-Email-check"><path class="cls-1" d="M46,11V39a4,4,0,0,1-1.17,2.83L38,35,27,24l-.28-.43Z"/><path class="cls-2" d="M38,35l6.83,6.83A4,4,0,0,1,42,43H4a4,4,0,0,1-2.83-1.17L8,35,19,24l.25-.39L23,26l3.72-2.43L27,24Z"/><path class="cls-1" d="M19.25,23.61,19,24,8,35,1.17,41.83A4,4,0,0,1,0,39V13a3.94,3.94,0,0,1,.18-1.19L1,12Z"/><path class="cls-3" d="M46,11,26.72,23.57,23,26l-3.75-2.39L1,12l-.82-.19A4,4,0,0,1,4,9H41C45,9,46,11,46,11Z"/><circle class="cls-4" cx="34" cy="12" r="12"/><path class="cls-5" d="M31,18a1,1,0,0,1-.71-.29l-3-3a1,1,0,0,1,1.42-1.42L31,15.59l8.29-8.3a1,1,0,1,1,1.42,1.42l-9,9A1,1,0,0,1,31,18Z"/></g></g></svg>