<svg xmlns="http://www.w3.org/2000/svg" viewBox="0 0 46 44"><defs><style>.cls-1{fill:#875757;}.cls-2{fill:#a67474;}.cls-3{fill:#8e6565;}.cls-4{fill:#49aaee;}.cls-5{fill:#d8d8d8;}</style></defs><g id="Layer_2" data-name="Layer 2"><g id="_18-Email-arrow" data-name="18-Email-arrow"><path class="cls-1" d="M46,2V30a4,4,0,0,1-1.17,2.83L38,26,27,15l-.28-.43Z"/><path class="cls-2" d="M38,26l6.83,6.83A4,4,0,0,1,42,34H4a4,4,0,0,1-2.83-1.17L8,26,19,15l.25-.39L23,17l3.72-2.43L27,15Z"/><path class="cls-1" d="M19.25,14.61,19,15,8,26,1.17,32.83A4,4,0,0,1,0,30V4A3.94,3.94,0,0,1,.18,2.81L1,3Z"/><path class="cls-3" d="M46,2,26.72,14.57,23,17l-3.75-2.39L1,3,.18,2.81A4,4,0,0,1,4,0H41C45,0,46,2,46,2Z"/><circle class="cls-4" cx="34" cy="32" r="12"/><path class="cls-5" d="M41.71,29.29a1,1,0,0,0-1.42,0L39,30.59V28a2.91,2.91,0,0,0-3-3H32a1,1,0,0,0,0,2h4a.91.91,0,0,1,1,1v2.59l-1.29-1.3a1,1,0,0,0-1.42,1.42l3,3a1,1,0,0,0,.33.21.94.94,0,0,0,.76,0,1,1,0,0,0,.33-.21l3-3A1,1,0,0,0,41.71,29.29Z"/><path class="cls-5" d="M36,37H32a.91.91,0,0,1-1-1V33.41l1.29,1.3a1,1,0,0,0,1.42,0,1,1,0,0,0,0-1.42l-3-3a1,1,0,0,0-.33-.21,1,1,0,0,0-.76,0,1,1,0,0,0-.33.21l-3,3a1,1,0,0,0,1.42,1.42L29,33.41V36a2.91,2.91,0,0,0,3,3h4a1,1,0,0,0,0-2Z"/></g></g></svg>