<svg xmlns="http://www.w3.org/2000/svg" viewBox="0 0 46 36"><defs><style>.cls-1{fill:#a4b0c0;}.cls-2{fill:#919cab;}.cls-3{fill:#d0d7df;}.cls-4{fill:#875757;}.cls-5{fill:#a87d7d;}.cls-6{fill:#8e6565;}</style></defs><g id="Layer_2" data-name="Layer 2"><g id="_38-Email" data-name="38-Email"><path class="cls-1" d="M28,18V34a2,2,0,0,1-.59,1.41L27,35l-4-4-6-6-.31-.54Z"/><path class="cls-1" d="M11.31,24.46,11,25,5,31,1,35l-.66.12A2,2,0,0,1,0,34V18Z"/><path class="cls-2" d="M27,35l.41.41A2,2,0,0,1,26,36H2a2,2,0,0,1-1.66-.88L1,35l4-4,6-6,.31-.54L14,26l2.69-1.54L17,25l6,6Z"/><path class="cls-3" d="M26,16a2,2,0,0,1,2,2L16.69,24.46,14,26l-2.69-1.54L0,18a2,2,0,0,1,2-2Z"/><path class="cls-4" d="M46,2V18a2,2,0,0,1-.59,1.41L45,19l-4-4L35,9l-.31-.54Z"/><path class="cls-4" d="M29.31,8.46,29,9l-6,6-4,4-.66.12A2,2,0,0,1,18,18V2Z"/><path class="cls-5" d="M45,19l.41.41A2,2,0,0,1,44,20H20a2,2,0,0,1-1.66-.88L19,19l4-4,6-6,.31-.54L32,10l2.69-1.54L35,9l6,6Z"/><path class="cls-6" d="M44,0a2,2,0,0,1,2,2L34.69,8.46,32,10,29.31,8.46,18,2a2,2,0,0,1,2-2Z"/><path class="cls-6" d="M41,24a1,1,0,0,0-1,1v4a.91.91,0,0,1-1,1H36.41l1.3-1.29a1,1,0,0,0-1.42-1.42l-3,3a1,1,0,0,0-.21.33,1,1,0,0,0,0,.76,1,1,0,0,0,.21.33l3,3a1,1,0,0,0,1.42,0,1,1,0,0,0,0-1.42L36.41,32H39a2.91,2.91,0,0,0,3-3V25A1,1,0,0,0,41,24Z"/><path class="cls-1" d="M12.92,4.62a1,1,0,0,0-.21-.33l-3-3A1,1,0,0,0,8.29,2.71L9.59,4H7A2.91,2.91,0,0,0,4,7v4a1,1,0,0,0,2,0V7A.91.91,0,0,1,7,6H9.59L8.29,7.29a1,1,0,0,0,0,1.42,1,1,0,0,0,1.42,0l3-3a1,1,0,0,0,.21-.33A1,1,0,0,0,12.92,4.62Z"/></g></g></svg>