<svg xmlns="http://www.w3.org/2000/svg" viewBox="0 0 46 44"><defs><style>.cls-1{fill:#875757;}.cls-2{fill:#a67474;}.cls-3{fill:#8e6565;}.cls-4{fill:#d8d8d8;}.cls-5{fill:#d0d7df;}</style></defs><g id="Layer_2" data-name="Layer 2"><g id="_6-Email-sent" data-name="6-Email-sent"><path class="cls-1" d="M46,2V30a4,4,0,0,1-1.17,2.83L38,26,27,15l-.28-.43Z"/><path class="cls-2" d="M38,26l6.83,6.83A4,4,0,0,1,42,34H4a4,4,0,0,1-2.83-1.17L8,26,19,15l.25-.39L23,17l3.72-2.43L27,15Z"/><path class="cls-1" d="M19.25,14.61,19,15,8,26,1.17,32.83A4,4,0,0,1,0,30V4A3.94,3.94,0,0,1,.18,2.81L1,3Z"/><path class="cls-3" d="M46,2,26.72,14.57,23,17l-3.75-2.39L1,3,.18,2.81A4,4,0,0,1,4,0H41C45,0,46,2,46,2Z"/><circle class="cls-4" cx="34" cy="32" r="12"/><path class="cls-5" d="M38.71,29.29l-4-4a1,1,0,0,0-.33-.21,1,1,0,0,0-.76,0,1,1,0,0,0-.33.21l-4,4a1,1,0,0,0,1.42,1.42L33,28.41V38a1,1,0,0,0,2,0V28.41l2.29,2.3a1,1,0,0,0,1.42,0A1,1,0,0,0,38.71,29.29Z"/></g></g></svg>