<svg xmlns="http://www.w3.org/2000/svg" viewBox="0 0 46 46"><defs><style>.cls-1{fill:#a4b0c0;}.cls-2{fill:#2ebc70;}.cls-3{fill:#35dc86;}.cls-4{fill:#49aaee;}.cls-5{fill:#8e6565;}</style></defs><g id="Layer_2" data-name="Layer 2"><g id="_49-Stamp" data-name="49-Stamp"><path class="cls-1" d="M46,39v3a4,4,0,0,1-4,4H39a4,4,0,0,0-8,0H27a4,4,0,0,0-8,0H15a4,4,0,0,0-8,0H4a4,4,0,0,1-4-4V39a4,4,0,0,0,0-8V27a4,4,0,0,0,0-8V15A4,4,0,0,0,0,7V4A4,4,0,0,1,4,0H7a4,4,0,0,0,8,0h4a4,4,0,0,0,8,0h4a4,4,0,0,0,8,0h3a4,4,0,0,1,4,4V7a4,4,0,0,0,0,8v4a4,4,0,0,0,0,8v4a4,4,0,0,0,0,8Z"/><path class="cls-2" d="M37,35v1a1,1,0,0,1-1,1H33l-8-8,3-3Z"/><polygon class="cls-3" points="33 37 11 37 22 26 25 29 33 37"/><path class="cls-4" d="M37,10V35l-9-9-3,3-3-3L11,37H10a1,1,0,0,1-1-1V10a1,1,0,0,1,1-1H36A1,1,0,0,1,37,10Z"/><circle class="cls-5" cx="19" cy="18" r="4"/></g></g></svg>