<svg xmlns="http://www.w3.org/2000/svg" viewBox="0 0 46 46"><defs><style>.cls-1{fill:#49aaee;}.cls-2{fill:#4c7ee7;}.cls-3{fill:#d8d8d8;}.cls-4{fill:#d0d7df;}</style></defs><g id="Layer_2" data-name="Layer 2"><g id="_45-Mail_Box-file" data-name="45-Mail Box-file"><path class="cls-1" d="M46,43a3,3,0,0,1-3,3H3a3,3,0,0,1-3-3V3A2.94,2.94,0,0,1,3,0H43a2.94,2.94,0,0,1,3,3Z"/><path class="cls-2" d="M42,5V25H33a3,3,0,0,0-3,3v4H16V28a3,3,0,0,0-3-3H4V5A1,1,0,0,1,5,4H41A1,1,0,0,1,42,5Z"/><path class="cls-3" d="M30,37v3a1,1,0,0,1-1,1H17a1,1,0,0,1-1-1V37Z"/><path class="cls-4" d="M38,10H30a2,2,0,0,1-2-2V0Z"/><path class="cls-3" d="M38,10V25H33a3,3,0,0,0-3,3v4H16V28a3,3,0,0,0-3-3H8V2a2,2,0,0,1,2-2H28V8a2,2,0,0,0,2,2Z"/><path class="cls-2" d="M33,38H13a1,1,0,0,1,0-2H33a1,1,0,0,1,0,2Z"/><path class="cls-4" d="M26.71,19.29a1,1,0,0,0-1.42,0L23,21.59V12a1,1,0,0,0-2,0v9.59l-2.29-2.3a1,1,0,0,0-1.42,1.42l4,4a1,1,0,0,0,.33.21.94.94,0,0,0,.76,0,1,1,0,0,0,.33-.21l4-4A1,1,0,0,0,26.71,19.29Z"/></g></g></svg>