<svg xmlns="http://www.w3.org/2000/svg" viewBox="0 0 46 42"><defs><style>.cls-1{fill:#723535;}.cls-2{fill:#875757;}.cls-3{fill:#afafaf;}.cls-4{fill:#8e6565;}</style></defs><g id="Layer_2" data-name="Layer 2"><g id="_4-Coding" data-name="4-Coding"><path class="cls-1" d="M46,8V39a3,3,0,0,1-3,3H3a3,3,0,0,1-3-3V8Z"/><path class="cls-2" d="M46,3V8H0V3A3,3,0,0,1,3,0H43A3,3,0,0,1,46,3Z"/><path class="cls-3" d="M5,5H6A1,1,0,0,0,6,3H5A1,1,0,0,0,5,5Z"/><path class="cls-3" d="M10,5h1a1,1,0,0,0,0-2H10a1,1,0,0,0,0,2Z"/><path class="cls-3" d="M40,5h1a1,1,0,0,0,0-2H40a1,1,0,0,0,0,2Z"/><path class="cls-4" d="M19,18a4,4,0,0,0-4,4v4a4,4,0,0,0,8,0V22A4,4,0,0,0,19,18Zm2,8a2,2,0,0,1-4,0V22a2,2,0,0,1,4,0Z"/><path class="cls-4" d="M9,20a2,2,0,0,1,2,2,1,1,0,0,0,2,0,4,4,0,0,0-8,0v4a4,4,0,0,0,8,0,1,1,0,0,0-2,0,2,2,0,0,1-4,0V22A2,2,0,0,1,9,20Z"/><path class="cls-4" d="M28,18H26a1,1,0,0,0-1,1V29a1,1,0,0,0,1,1h2a4,4,0,0,0,4-4V22A4,4,0,0,0,28,18Zm2,8a2,2,0,0,1-2,2H27V20h1a2,2,0,0,1,2,2Z"/><path class="cls-4" d="M40,20a1,1,0,0,0,0-2H35a1,1,0,0,0-1,1V29a1,1,0,0,0,1,1h5a1,1,0,0,0,0-2H36V25h4a1,1,0,0,0,0-2H36V20Z"/></g></g></svg>