<svg xmlns="http://www.w3.org/2000/svg" viewBox="0 0 512 408"><defs><style>.cls-1,.cls-6{fill:#e2e5e7;}.cls-2{fill:#d1d5d5;}.cls-3{fill:#c6cbcb;}.cls-4{fill:#4e4e4e;}.cls-5{fill:#df584c;}.cls-6{opacity:0.16;}</style></defs><g id="Layer_2" data-name="Layer 2"><g id="Icons"><g id="iMac_Envelope" data-name="iMac + Envelope"><rect class="cls-1" width="512" height="352.73" rx="12.94"/><path class="cls-2" d="M314.07,352.73H197.93s-2.35,38.81-7.06,47H321.13C316.42,391.54,314.07,352.73,314.07,352.73Z"/><path class="cls-3" d="M332,403c-7.05-.88-10.87-3.23-10.87-3.23H190.87S187.05,402.12,180,403s-11.76,1.47-11.76,5H343.76C343.76,404.47,339.06,403.89,332,403Z"/><path class="cls-4" d="M499.06,0H12.94A12.94,12.94,0,0,0,0,12.94V306.47H512V12.94A12.94,12.94,0,0,0,499.06,0Zm-8.25,288.09H21.19V18.39H490.81Z"/><polygon class="cls-5" points="21.19 18.39 21.19 288.09 233.86 288.09 490.81 288.09 490.81 18.39 398.77 18.39 21.19 18.39"/><path class="cls-3" d="M314.07,352.73H197.93s-.35,5.77-1.05,13.33H315.12C314.42,358.5,314.07,352.73,314.07,352.73Z"/><circle class="cls-4" cx="256.07" cy="330.69" r="8.41" transform="translate(-49.66 45.29) rotate(-9.22)"/><path class="cls-1" d="M331.88,197.25a8.38,8.38,0,0,1-8.33,8.42H188.45a8.38,8.38,0,0,1-8.33-8.42v-88a8.38,8.38,0,0,1,8.33-8.43h135.1a8.38,8.38,0,0,1,8.33,8.43Z"/><path class="cls-2" d="M183.74,204.2A8.61,8.61,0,0,1,181.6,202l59.83-40.4,1.85,1.85Z"/><path class="cls-2" d="M328.31,204.2a8.61,8.61,0,0,0,2.14-2.16l-59.82-40.4-1.86,1.85Z"/><path class="cls-3" d="M180.5,106.74a8.33,8.33,0,0,1,7.95-5.94h135.1a8.33,8.33,0,0,1,7.67,5.15,9.9,9.9,0,0,1,.34,1l-53.89,54.73S266.1,176.37,256,176.37c-9.59,0-21.39-14.73-21.39-14.73Z"/><path class="cls-1" d="M180.5,106.74a8.33,8.33,0,0,1,7.95-5.94h135.1a8.33,8.33,0,0,1,7.67,5.15,9.9,9.9,0,0,1,.34,1L273.5,161.64s-9.25,8.25-17.47,8.25c-8.44,0-17.69-8.25-17.69-8.25Z"/><path class="cls-6" d="M499.06,0H410L222.63,306.47H512V12.94A12.94,12.94,0,0,0,499.06,0Z"/></g></g></g></svg>