<svg xmlns="http://www.w3.org/2000/svg" viewBox="0 0 38 46"><defs><style>.cls-1{fill:#8f6767;}.cls-2{fill:#723535;}.cls-3{fill:#ccc;}.cls-4{fill:none;}.cls-5{fill:#b2b2b2;}</style></defs><g id="Layer_2" data-name="Layer 2"><g id="_2-File-Document-zip" data-name="2-File-Document-zip"><path class="cls-1" d="M38,13V42a4,4,0,0,1-4,4H4s-4,0-4-4V4A4,4,0,0,1,4,0H25V9a4,4,0,0,0,4,4Z"/><path class="cls-2" d="M38,13H29a4,4,0,0,1-4-4V0Z"/><rect class="cls-3" x="11" y="21" width="4" height="8" rx="1"/><rect class="cls-4" x="10" y="24" width="6" height="2" transform="matrix(0, -1, 1, 0, -12.02, 37.96)"/><path class="cls-5" d="M14,20V17a1,1,0,0,0-.29-.71L12.41,15l1.3-1.29a1,1,0,0,0,0-1.42L12,10.59V0H10V11a1,1,0,0,0,.29.71L11.59,13l-1.3,1.29a1,1,0,0,0,0,1.42L12,17.41V20a2,2,0,0,0-2,2v6a2,2,0,0,0,2,2h2a2,2,0,0,0,2-2V22A2,2,0,0,0,14,20Zm0,8H12V22h2Z"/></g></g></svg>