<svg xmlns="http://www.w3.org/2000/svg" viewBox="0 0 46 30"><defs><style>.cls-1{fill:#723535;}.cls-2{fill:#875757;}.cls-3{fill:#afafaf;}.cls-4{fill:#a8a0a7;}</style></defs><g id="Layer_2" data-name="Layer 2"><g id="_4-Coding" data-name="4-Coding"><path class="cls-1" d="M46,7V28c0,1.12-1.34,2-3,2H3c-1.66,0-3-.91-3-2V7Z"/><path class="cls-2" d="M46,3V8H0V3A3,3,0,0,1,3,0H43A3,3,0,0,1,46,3Z"/><path class="cls-3" d="M5,5H6A1,1,0,0,0,6,3H5A1,1,0,0,0,5,5Z"/><path class="cls-3" d="M10,5h1a1,1,0,0,0,0-2H10a1,1,0,0,0,0,2Z"/><path class="cls-3" d="M40,5h1a1,1,0,0,0,0-2H40a1,1,0,0,0,0,2Z"/><path class="cls-4" d="M9.45,13h1.87l-.45,3.17H14.5L15,13h1.87l-1.2,8.49H13.76l.51-3.67H10.64l-.52,3.67H8.25Z"/><path class="cls-4" d="M18.63,13H24.4l-.25,1.73h-3.9L20,16.29h3.68L23.46,18H19.78l-.24,1.73h4.11l-.24,1.72h-6Z"/><path class="cls-4" d="M26.19,13h1.87l-1,6.77h3.47l-.24,1.72H25Z"/><path class="cls-4" d="M32.56,13h3.15c1.77,0,3.15.57,2.86,2.58s-1.71,2.6-3.5,2.6H33.7l-.47,3.31H31.36Zm1.36,3.6h1.24c.66,0,1.36-.23,1.47-1s-.75-1-1.47-1h-.95Z"/></g></g></svg>