<svg xmlns="http://www.w3.org/2000/svg" viewBox="0 0 44 46"><defs><style>.cls-1{fill:#ececec;}.cls-2{fill:#8daab2;}.cls-3{fill:#874a4a;}.cls-4{fill:#d8d8d8;}</style></defs><g id="Layer_2" data-name="Layer 2"><g id="_3-Smartphone-Communication" data-name="3-Smartphone-Communication"><path class="cls-1" d="M30,40v3a3,3,0,0,1-3,3H3a3,3,0,0,1-3-3V40Z"/><path class="cls-1" d="M30,3V6H0V3A3,3,0,0,1,3,0H27A3,3,0,0,1,30,3Z"/><rect class="cls-2" y="6" width="30" height="34"/><path class="cls-3" d="M44,14V30a3,3,0,0,1-3,3H30l-4,4-4-4H11a3,3,0,0,1-3-3V14a3,3,0,0,1,3-3H41A3,3,0,0,1,44,14Z"/><circle class="cls-4" cx="35" cy="22" r="2"/><circle class="cls-4" cx="26" cy="22" r="2"/><circle class="cls-4" cx="17" cy="22" r="2"/></g></g></svg>