<svg xmlns="http://www.w3.org/2000/svg" viewBox="0 0 46 44"><defs><style>.cls-1{fill:#d8d8d8;}.cls-2{fill:#874a4a;}.cls-3{fill:#a17777;}.cls-4{fill:#ccc;}</style></defs><g id="Layer_2" data-name="Layer 2"><g id="_8-Communication" data-name="8-Communication"><path class="cls-1" d="M11,36a1,1,0,0,0,1,1H34a1,1,0,0,0,1-1V33H34a2,2,0,0,1-2-2V28a2,2,0,0,1,2-2H44a2,2,0,0,1,2,2V38s0,6-6,6H6c-6,0-6-6-6-6V28a2,2,0,0,1,2-2H12a2,2,0,0,1,2,2v3a2,2,0,0,1-2,2H11v3Z"/><path class="cls-1" d="M28,17.48V19a2,2,0,0,1-2,2H21l-3,3-3-3H8a2,2,0,0,1-2-2V7A2,2,0,0,1,8,5H22.94A9,9,0,0,0,28,17.48Z"/><path class="cls-2" d="M22.94,5A9,9,0,1,1,31,18a8.8,8.8,0,0,1-3-.52A9,9,0,0,1,22.94,5Z"/><path class="cls-3" d="M28,7a1,1,0,0,0,1-1V5a1,1,0,0,0-2,0V6A1,1,0,0,0,28,7Z"/><path class="cls-3" d="M34,7a1,1,0,0,0,1-1V5a1,1,0,0,0-2,0V6A1,1,0,0,0,34,7Z"/><path class="cls-3" d="M31,15a5,5,0,0,0,5-5,1,1,0,0,0-2,0,3,3,0,0,1-6,0,1,1,0,0,0-2,0A5,5,0,0,0,31,15Z"/><rect class="cls-4" x="3" y="33" width="8" height="2"/><rect class="cls-4" x="35" y="33" width="8" height="2"/></g></g></svg>