<svg xmlns="http://www.w3.org/2000/svg" viewBox="0 0 46 44"><defs><style>.cls-1{fill:#ececec;}.cls-2{fill:#874a4a;}.cls-3{fill:#a17777;}</style></defs><g id="Layer_2" data-name="Layer 2"><g id="_13-Communication" data-name="13-Communication"><path class="cls-1" d="M46,8V34a4,4,0,0,1-4,4H28l-5,6-5-6H4a4,4,0,0,1-4-4V8A4,4,0,0,1,4,4H42A4,4,0,0,1,46,8Z"/><circle class="cls-2" cx="33" cy="10" r="10"/><path class="cls-3" d="M33,11a1,1,0,0,1-1-1V5a1,1,0,0,1,2,0v5A1,1,0,0,1,33,11Z"/><path class="cls-3" d="M33,16a1,1,0,0,1-1-1V14a1,1,0,0,1,2,0v1A1,1,0,0,1,33,16Z"/></g></g></svg>