<svg xmlns="http://www.w3.org/2000/svg" viewBox="0 0 46 46"><defs><style>.cls-1{fill:#ececec;}.cls-2{fill:#874a4a;}.cls-3{fill:#d8d8d8;}.cls-4{fill:#a17777;}</style></defs><g id="Layer_2" data-name="Layer 2"><g id="_10-Communication" data-name="10-Communication"><path class="cls-1" d="M14,40v6H4V40H0V32a4,4,0,0,1,4-4H6l3,3,3-3h2a4,4,0,0,1,4,4v8Z"/><path class="cls-2" d="M42,0H4A4,4,0,0,0,0,4V32a4,4,0,0,1,4-4H6l3,3,3-3h2a4,4,0,0,1,4,4v2h5v6l5-6H42a4,4,0,0,0,4-4V4A4,4,0,0,0,42,0Z"/><path class="cls-3" d="M0,32v8H4V28A4,4,0,0,0,0,32Z"/><path class="cls-3" d="M14,28V40h4V32A4,4,0,0,0,14,28Z"/><circle class="cls-1" cx="9" cy="22" r="4"/><path class="cls-4" d="M39,12H20a1,1,0,0,1,0-2H39a1,1,0,0,1,0,2Z"/><path class="cls-4" d="M31,18H20a1,1,0,0,1,0-2H31a1,1,0,0,1,0,2Z"/><path class="cls-4" d="M25,24H20a1,1,0,0,1,0-2h5a1,1,0,0,1,0,2Z"/></g></g></svg>