<svg xmlns="http://www.w3.org/2000/svg" viewBox="0 0 46 42"><defs><style>.cls-1{fill:#d8d8d8;}.cls-2{fill:#ccc;}.cls-3{fill:#874a4a;}.cls-4{fill:#a17777;}</style></defs><g id="Layer_2" data-name="Layer 2"><g id="_6-Communication" data-name="6-Communication"><path class="cls-1" d="M46,8V39a3,3,0,0,1-3,3H3a3,3,0,0,1-3-3V8Z"/><path class="cls-1" d="M46,3V8H0V3A3,3,0,0,1,3,0H43A3,3,0,0,1,46,3Z"/><path class="cls-2" d="M6,5H5A1,1,0,0,1,5,3H6A1,1,0,0,1,6,5Z"/><path class="cls-2" d="M11,5H10a1,1,0,0,1,0-2h1a1,1,0,0,1,0,2Z"/><path class="cls-2" d="M41,5H40a1,1,0,0,1,0-2h1a1,1,0,0,1,0,2Z"/><path class="cls-3" d="M41,16V34a3,3,0,0,1-3,3H27l-4,4-4-4H8a3,3,0,0,1-3-3V16a3,3,0,0,1,3-3H38A3,3,0,0,1,41,16Z"/><path class="cls-4" d="M34,21H12a1,1,0,0,1,0-2H34a1,1,0,0,1,0,2Z"/><path class="cls-4" d="M34,26H12a1,1,0,0,1,0-2H34a1,1,0,0,1,0,2Z"/><path class="cls-4" d="M22,31H12a1,1,0,0,1,0-2H22a1,1,0,0,1,0,2Z"/></g></g></svg>