<svg xmlns="http://www.w3.org/2000/svg" viewBox="0 0 46 46"><defs><style>.cls-1{fill:#ececec;}.cls-2{fill:#d8d8d8;}.cls-3{fill:#8daab2;}.cls-4{fill:#874a4a;}.cls-5{fill:#d7d7d7;}</style></defs><g id="Layer_2" data-name="Layer 2"><g id="_18-Computer-Communication" data-name="18-Computer-Communication"><polygon class="cls-1" points="34 42 34 46 12 46 12 42 15 42 31 42 34 42"/><polygon class="cls-2" points="29 36 31 42 15 42 17 36 29 36"/><path class="cls-3" d="M46,3V28H0V3A3,3,0,0,1,3,0H43A3,3,0,0,1,46,3Z"/><path class="cls-1" d="M46,28v5a3,3,0,0,1-3,3H3a3,3,0,0,1-3-3V28Z"/><path class="cls-2" d="M39,21l-3,2v1a2,2,0,0,1-2,2H9a2,2,0,0,1-2-2V18a2,2,0,0,1,2-2H34a2,2,0,0,1,2,2v1Z"/><path class="cls-2" d="M38,4v6a2,2,0,0,1-2,2H11a2,2,0,0,1-2-2V9L6,7,9,5V4a2,2,0,0,1,2-2H36A2,2,0,0,1,38,4Z"/><path class="cls-4" d="M27,7a4,4,0,0,1,4,4c0,5-8,10-8,10s-8-5-8-10a4,4,0,0,1,8,0A4,4,0,0,1,27,7Z"/><polygon class="cls-5" points="29 36 17 36 16.33 38 29.67 38 29 36"/></g></g></svg>