<svg xmlns="http://www.w3.org/2000/svg" viewBox="0 0 46 46"><defs><style>.cls-1{fill:#874a4a;}.cls-2{fill:#d8d8d8;}.cls-3{fill:#a17777;}.cls-4{fill:#ececec;}</style></defs><g id="Layer_2" data-name="Layer 2"><g id="_12-Communication-Happy" data-name="12-Communication-Happy"><circle class="cls-1" cx="32" cy="14" r="14"/><path class="cls-2" d="M4,40H0V32a4,4,0,0,1,4-4H6l3,3,3-3h2a4,4,0,0,1,4,4v8H14v6H4Z"/><path class="cls-2" d="M32,28A14,14,0,0,1,32,0H4A4,4,0,0,0,0,4V32a4,4,0,0,1,4-4H6l3,3,3-3h2a4,4,0,0,1,4,4v2h5v6l5-6H42a4,4,0,0,0,4-4V14A14,14,0,0,1,32,28Z"/><circle class="cls-2" cx="9" cy="22" r="4"/><path class="cls-3" d="M27,12a1,1,0,0,1-1-1V8a1,1,0,0,1,2,0v3A1,1,0,0,1,27,12Z"/><path class="cls-3" d="M37,12a1,1,0,0,1-1-1V8a1,1,0,0,1,2,0v3A1,1,0,0,1,37,12Z"/><path class="cls-3" d="M32,23a8,8,0,0,1-8-8,1,1,0,0,1,2,0,6,6,0,0,0,12,0,1,1,0,0,1,2,0A8,8,0,0,1,32,23Z"/><path class="cls-4" d="M0,32v8H4V28A4,4,0,0,0,0,32Z"/><path class="cls-4" d="M14,28V40h4V32A4,4,0,0,0,14,28Z"/></g></g></svg>