<svg xmlns="http://www.w3.org/2000/svg" viewBox="0 0 38 46"><defs><style>.cls-1{fill:#ececec;}.cls-2{fill:#8daab2;}.cls-3{fill:#d8d8d8;}</style></defs><g id="Layer_2" data-name="Layer 2"><g id="_5-Smartphone-Chat" data-name="5-Smartphone-Chat"><path class="cls-1" d="M33,40v3a3,3,0,0,1-3,3H6a3,3,0,0,1-3-3V40Z"/><path class="cls-1" d="M33,3V6H3V3A3,3,0,0,1,6,0H30A3,3,0,0,1,33,3Z"/><rect class="cls-2" x="3" y="6" width="30" height="34"/><path class="cls-1" d="M38,30l-3,2v1a2,2,0,0,1-2,2H2a2,2,0,0,1-2-2V27a2,2,0,0,1,2-2H33a2,2,0,0,1,2,2v1Z"/><path class="cls-3" d="M38,13v6a2,2,0,0,1-2,2H5a2,2,0,0,1-2-2V18L0,16l3-2V13a2,2,0,0,1,2-2H36A2,2,0,0,1,38,13Z"/><path class="cls-3" d="M5,30a1,1,0,0,0,1,1H30a1,1,0,0,0,0-2H6a1,1,0,0,0-1,1Z"/><path class="cls-1" d="M7,16a1,1,0,0,0,1,1H32a1,1,0,0,0,0-2H8a1,1,0,0,0-1,1Z"/></g></g></svg>