<svg xmlns="http://www.w3.org/2000/svg" viewBox="0 0 46 46"><defs><style>.cls-1{fill:#d8d8d8;}.cls-2{fill:#874a4a;}.cls-3{fill:#ccc;}</style></defs><g id="Layer_2" data-name="Layer 2"><g id="_19-Phone" data-name="19-Phone"><path class="cls-1" d="M35,35H34a2,2,0,0,1-2-2V30a2,2,0,0,1,2-2H44a2,2,0,0,1,2,2V40s0,6-6,6H6c-6,0-6-6-6-6V30a2,2,0,0,1,2-2H12a2,2,0,0,1,2,2v3a2,2,0,0,1-2,2H11v3a1,1,0,0,0,1,1H34a1,1,0,0,0,1-1Z"/><path class="cls-2" d="M41,3V19a3,3,0,0,1-3,3H27l-4,4-4-4H8a3,3,0,0,1-3-3V3A3,3,0,0,1,8,0H38A3,3,0,0,1,41,3Z"/><circle class="cls-1" cx="32" cy="11" r="2"/><circle class="cls-1" cx="23" cy="11" r="2"/><circle class="cls-1" cx="14" cy="11" r="2"/><rect class="cls-3" x="3" y="35" width="8" height="2"/><rect class="cls-3" x="35" y="35" width="8" height="2"/></g></g></svg>