<svg xmlns="http://www.w3.org/2000/svg" viewBox="0 0 46 46"><defs><style>.cls-1{fill:#d8d8d8;}.cls-2{fill:#8daab2;}.cls-3{fill:#874a4a;}.cls-4{fill:#a17777;}</style></defs><g id="Layer_2" data-name="Layer 2"><g id="_9-Communication" data-name="9-Communication"><path class="cls-1" d="M46,15V33a3,3,0,0,1-3,3H36V21a3,3,0,0,0-3-3H11V14a2,2,0,0,1,2-2H43A3,3,0,0,1,46,15Z"/><path class="cls-2" d="M3,18a3,3,0,0,0-3,3V3A3,3,0,0,1,3,0H33a3,3,0,0,1,3,3v9H13a2,2,0,0,0-2,2v4Z"/><path class="cls-3" d="M36,36v3a3,3,0,0,1-3,3H22l-4,4-4-4H3a3,3,0,0,1-3-3V21a3,3,0,0,1,3-3H33a3,3,0,0,1,3,3Z"/><path class="cls-4" d="M29,25H7a1,1,0,0,1,0-2H29a1,1,0,0,1,0,2Z"/><path class="cls-4" d="M29,31H7a1,1,0,0,1,0-2H29a1,1,0,0,1,0,2Z"/><path class="cls-4" d="M19,37H7a1,1,0,0,1,0-2H19a1,1,0,0,1,0,2Z"/></g></g></svg>