<svg xmlns="http://www.w3.org/2000/svg" viewBox="0 0 44 46"><defs><style>.cls-1{fill:#ececec;}.cls-2{fill:#8daab2;}.cls-3{fill:#d8d8d8;}.cls-4{fill:#874a4a;}</style></defs><g id="Layer_2" data-name="Layer 2"><g id="_16-Smartphone-Chat-love" data-name="16-Smartphone-Chat-love"><path class="cls-1" d="M30,40v3a3,3,0,0,1-3,3H3a3,3,0,0,1-3-3V40Z"/><path class="cls-1" d="M30,3V6H0V3A3,3,0,0,1,3,0H27A3,3,0,0,1,30,3Z"/><rect class="cls-2" y="6" width="30" height="34"/><path class="cls-3" d="M44,6V22a3,3,0,0,1-3,3H32l-4,4-4-4H15a3,3,0,0,1-3-3V6a3,3,0,0,1,3-3H41A3,3,0,0,1,44,6Z"/><path class="cls-4" d="M32,7a4,4,0,0,1,4,4c0,5-8,10-8,10s-8-5-8-10a4,4,0,0,1,8,0A4,4,0,0,1,32,7Z"/></g></g></svg>