<svg id="Layer_1" data-name="Layer 1" xmlns="http://www.w3.org/2000/svg" viewBox="0 0 15.71 10.89"><defs><style>.cls-1{fill:#8e7a7a;}.cls-2{fill:#725454;}.cls-3{fill:#876f6f;}.cls-4{fill:#977c7c;}</style></defs><path class="cls-1" d="M10.29,3.63V10.5a1,1,0,0,1-.95.95H2.23a.92.92,0,0,1-.94-.95v-9A1,1,0,0,1,2.23.55h5V2.68a.94.94,0,0,0,1,.95Z" transform="translate(-1.29 -0.55)"/><path class="cls-2" d="M10.29,3.63H8.16a.94.94,0,0,1-1-.95V.55Z" transform="translate(-1.29 -0.55)"/><circle class="cls-1" cx="4.5" cy="6.87" r="0.47"/><path class="cls-2" d="M5.79,4.82a2.61,2.61,0,1,1-2.61,2.6A2.59,2.59,0,0,1,5.79,4.82Zm.47,2.6A.47.47,0,0,0,5.79,7a.47.47,0,1,0,0,.94A.47.47,0,0,0,6.26,7.42Z" transform="translate(-1.29 -0.55)"/><path class="cls-3" d="M4.37,7.66a.24.24,0,0,1-.24-.24A1.66,1.66,0,0,1,5.79,5.76a.24.24,0,0,1,0,.48A1.18,1.18,0,0,0,4.6,7.42.23.23,0,0,1,4.37,7.66Z" transform="translate(-1.29 -0.55)"/><path class="cls-4" d="M17,6.4,14.5,3.9V5.4h-2v2h2V8.9Z" transform="translate(-1.29 -0.55)"/></svg>