<svg xmlns="http://www.w3.org/2000/svg" viewBox="0 0 46 46"><defs><style>.cls-1{fill:#d8d8d8;}.cls-2{fill:#874a4a;}.cls-3{fill:#a17777;}</style></defs><g id="Layer_2" data-name="Layer 2"><g id="_15-Communication" data-name="15-Communication"><path class="cls-1" d="M40,33v1s-1,5-5,5v7H16V38c0-3-2-3-2-3H8a2.94,2.94,0,0,1-3-3V28.27A4.76,4.76,0,0,0,2,27a2,2,0,0,1-2-2l5-9.06V14A14,14,0,0,1,19,0h6c7.73,0,15,6.27,15,14Z"/><path class="cls-2" d="M46,9V25a3,3,0,0,1-3,3H35l-4,4-4-4H19a3,3,0,0,1-3-3V9a3,3,0,0,1,3-3H43A3,3,0,0,1,46,9Z"/><path class="cls-3" d="M34,13H22a1,1,0,0,1,0-2H34a1,1,0,0,1,0,2Z"/><path class="cls-3" d="M34,18H22a1,1,0,0,1,0-2H34a1,1,0,0,1,0,2Z"/><path class="cls-3" d="M40,23H22a1,1,0,0,1,0-2H40a1,1,0,0,1,0,2Z"/></g></g></svg>