<svg xmlns="http://www.w3.org/2000/svg" viewBox="0 0 40 46"><defs><style>.cls-1{fill:#8daab2;}.cls-2{fill:#ececec;}.cls-3{fill:#d8d8d8;}</style></defs><g id="Layer_2" data-name="Layer 2"><g id="_14-Smartphone-Chat" data-name="14-Smartphone-Chat"><polygon class="cls-1" points="35 11 35 6 5 6 5 30 0 30 5 35 5 40 35 40 35 16 40 16 35 11"/><path class="cls-2" d="M35,40v3a3,3,0,0,1-3,3H8a3,3,0,0,1-3-3V40Z"/><path class="cls-2" d="M35,3V6H5V3A3,3,0,0,1,8,0H32A3,3,0,0,1,35,3Z"/><path class="cls-3" d="M29,27v6a2,2,0,0,1-2,2H15a2,2,0,0,1-2-2V32l-2-2,2-2V27a2,2,0,0,1,2-2H27A2,2,0,0,1,29,27Z"/><path class="cls-3" d="M29,16l-2,2v1a2,2,0,0,1-2,2H13a2,2,0,0,1-2-2V13a2,2,0,0,1,2-2H25a2,2,0,0,1,2,2v1Z"/><path class="cls-2" d="M14,16a1,1,0,0,0,1,1h8a1,1,0,0,0,0-2H15a1,1,0,0,0-1,1Z"/><path class="cls-2" d="M16,30a1,1,0,0,0,1,1h8a1,1,0,0,0,0-2H17a1,1,0,0,0-1,1Z"/></g></g></svg>