<svg xmlns="http://www.w3.org/2000/svg" viewBox="0 0 46 46"><defs><style>.cls-1{fill:#ececec;}.cls-2{fill:#d8d8d8;}.cls-3{fill:#8daab2;}.cls-4{fill:#874a4a;}.cls-5{fill:#d7d7d7;}.cls-6{fill:#a17777;}</style></defs><g id="Layer_2" data-name="Layer 2"><g id="_7-Message" data-name="7-Message"><polygon class="cls-1" points="34 42 34 46 12 46 12 42 15 42 31 42 34 42"/><polygon class="cls-2" points="29 36 31 42 15 42 17 36 29 36"/><path class="cls-3" d="M46,3V28H0V3A3,3,0,0,1,3,0H43A3,3,0,0,1,46,3Z"/><path class="cls-1" d="M46,28v5a3,3,0,0,1-3,3H3a3,3,0,0,1-3-3V28Z"/><path class="cls-2" d="M39,20l-3,2v1a2,2,0,0,1-2,2H9a2,2,0,0,1-2-2V17a2,2,0,0,1,2-2H34a2,2,0,0,1,2,2v1Z"/><path class="cls-4" d="M38,5v6a2,2,0,0,1-2,2H11a2,2,0,0,1-2-2V10L6,8,9,6V5a2,2,0,0,1,2-2H36A2,2,0,0,1,38,5Z"/><polygon class="cls-5" points="29 36 17 36 16.33 38 29.67 38 29 36"/><path class="cls-1" d="M12,20a1,1,0,0,0,1,1H31a1,1,0,0,0,0-2H13a1,1,0,0,0-1,1Z"/><path class="cls-6" d="M13,8a1,1,0,0,0,1,1H32a1,1,0,0,0,0-2H14a1,1,0,0,0-1,1Z"/></g></g></svg>