<svg xmlns="http://www.w3.org/2000/svg" viewBox="0 0 46 44"><defs><style>.cls-1{fill:#874a4a;}.cls-2{fill:#ececec;}.cls-3{fill:#d8d8d8;}.cls-4{fill:#a17777;}</style></defs><g id="Layer_2" data-name="Layer 2"><g id="_11-Meeting" data-name="11-Meeting"><path class="cls-1" d="M46,4V18s0,4-4,4H26l-3,3-3-3H4c-4,0-4-4-4-4V4A4,4,0,0,1,4,0H42A4,4,0,0,1,46,4Z"/><path class="cls-2" d="M14,38v6H4V38H0V30a4,4,0,0,1,4-4H6l3,3,3-3h2a4,4,0,0,1,4,4v8Z"/><circle class="cls-3" cx="9" cy="20" r="4"/><path class="cls-2" d="M42,38v6H32V38H28V30a4,4,0,0,1,4-4h2l3,3,3-3h2a4,4,0,0,1,4,4v8Z"/><circle class="cls-3" cx="37" cy="20" r="4"/><path class="cls-4" d="M34,7H12a1,1,0,0,1,0-2H34a1,1,0,0,1,0,2Z"/><path class="cls-4" d="M30,12H16a1,1,0,0,1,0-2H30a1,1,0,0,1,0,2Z"/><path class="cls-4" d="M21,17H19a1,1,0,0,1,0-2h2a1,1,0,0,1,0,2Z"/><path class="cls-4" d="M27,17H25a1,1,0,0,1,0-2h2a1,1,0,0,1,0,2Z"/><path class="cls-3" d="M0,30v8H4V26A4,4,0,0,0,0,30Z"/><path class="cls-3" d="M14,26V38h4V30A4,4,0,0,0,14,26Z"/><path class="cls-3" d="M28,30v8h4V26A4,4,0,0,0,28,30Z"/><path class="cls-3" d="M42,26V38h4V30A4,4,0,0,0,42,26Z"/></g></g></svg>