<svg xmlns="http://www.w3.org/2000/svg" viewBox="0 0 46 44"><defs><style>.cls-1{fill:#ececec;}.cls-2{fill:#874a4a;}.cls-3{fill:#a17777;}</style></defs><g id="Layer_2" data-name="Layer 2"><g id="_4-Message-Happy" data-name="4-Message-Happy"><path class="cls-1" d="M46,8V34a4,4,0,0,1-4,4H28l-5,6-5-6H4a4,4,0,0,1-4-4V8A4,4,0,0,1,4,4H42A4,4,0,0,1,46,8Z"/><circle class="cls-2" cx="23" cy="15" r="15"/><path class="cls-3" d="M18,13a1,1,0,0,1-1-1V9a1,1,0,0,1,2,0v3A1,1,0,0,1,18,13Z"/><path class="cls-3" d="M28,13a1,1,0,0,1-1-1V9a1,1,0,0,1,2,0v3A1,1,0,0,1,28,13Z"/><path class="cls-3" d="M23,24a8,8,0,0,1-8-8,1,1,0,0,1,2,0,6,6,0,0,0,12,0,1,1,0,0,1,2,0A8,8,0,0,1,23,24Z"/></g></g></svg>