<svg xmlns="http://www.w3.org/2000/svg" viewBox="0 0 46 46"><defs><style>.cls-1{fill:#ececec;}.cls-2{fill:#d8d8d8;}.cls-3{fill:#8daab2;}.cls-4{fill:#874a4a;}.cls-5{fill:#a17777;}.cls-6{fill:#d7d7d7;}</style></defs><g id="Layer_2" data-name="Layer 2"><g id="_20-Computer-Message" data-name="20-Computer-Message"><polygon class="cls-1" points="34 42 34 46 12 46 12 42 15 42 31 42 34 42"/><polygon class="cls-2" points="29 36 31 42 15 42 17 36 29 36"/><path class="cls-3" d="M46,3V28H0V3A3,3,0,0,1,3,0H43A3,3,0,0,1,46,3Z"/><path class="cls-1" d="M46,28v5a3,3,0,0,1-3,3H3a3,3,0,0,1-3-3V28Z"/><path class="cls-2" d="M28,19.48V21a2,2,0,0,1-2,2H21l-3,3-3-3H8a2,2,0,0,1-2-2V9A2,2,0,0,1,8,7H22.94A9,9,0,0,0,28,19.48Z"/><path class="cls-4" d="M22.94,7A9,9,0,1,1,31,20a8.8,8.8,0,0,1-3-.52A9,9,0,0,1,22.94,7Z"/><path class="cls-5" d="M28,9a1,1,0,0,0,1-1V7a1,1,0,0,0-2,0V8A1,1,0,0,0,28,9Z"/><path class="cls-5" d="M34,9a1,1,0,0,0,1-1V7a1,1,0,0,0-2,0V8A1,1,0,0,0,34,9Z"/><path class="cls-5" d="M31,17a5,5,0,0,0,5-5,1,1,0,0,0-2,0,3,3,0,0,1-6,0,1,1,0,0,0-2,0A5,5,0,0,0,31,17Z"/><polygon class="cls-6" points="29 36 17 36 16.33 38 29.67 38 29 36"/></g></g></svg>