<svg xmlns="http://www.w3.org/2000/svg" viewBox="0 0 46 46"><defs><style>.cls-1{fill:#8daab2;}.cls-2{fill:#874a4a;}.cls-3{fill:#d8d8d8;}</style></defs><g id="Layer_2" data-name="Layer 2"><g id="_2-Love-Communication" data-name="2-Love-Communication"><path class="cls-1" d="M46,10V36a4,4,0,0,1-4,4H28l-5,6-5-6H4a4,4,0,0,1-4-4V10A4,4,0,0,1,4,6H42A4,4,0,0,1,46,10Z"/><path class="cls-2" d="M36,3V21a3,3,0,0,1-3,3H22l-4,4-4-4H3a3,3,0,0,1-3-3V3A3,3,0,0,1,3,0H33A3,3,0,0,1,36,3Z"/><path class="cls-3" d="M22,5a4,4,0,0,1,4,4c0,5-8,10-8,10s-8-5-8-10a4,4,0,0,1,8,0A4,4,0,0,1,22,5Z"/></g></g></svg>