<svg id="Layer_1" data-name="Layer 1" xmlns="http://www.w3.org/2000/svg" viewBox="0 0 95.28 26.8"><defs><style>.cls-1{font-size:12px;fill:#ccc;font-family:ColomboSansFont-Regular, Colombo Sans Font;}.cls-2{letter-spacing:0.01em;}.cls-3{letter-spacing:-0.02em;}.cls-4{letter-spacing:-0.03em;}.cls-5{letter-spacing:0em;}.cls-6{letter-spacing:-0.01em;}.cls-7{fill:#d8d8d8;}.cls-8{fill:#875757;}.cls-9{fill:#8e6565;}.cls-10{fill:#94b28d;}.cls-11{fill:#723535;opacity:0.8;}</style></defs><text class="cls-1" transform="translate(29.9 18.53)"><tspan class="cls-2">N</tspan><tspan class="cls-3" x="7.74" y="0">e</tspan><tspan x="13.58" y="0">w </tspan><tspan class="cls-4" x="31.37" y="0">T</tspan><tspan class="cls-5" x="38.12" y="0">o</tspan><tspan class="cls-6" x="47.24" y="0">p</tspan><tspan x="54.24" y="0">ic</tspan></text><path class="cls-7" d="M23.24,11.28l-9.24,6-9.24-6V2A.53.53,0,0,1,5.3,1.5H22.7a.53.53,0,0,1,.54.54Z" transform="translate(-1.5 0.3)"/><polygon class="cls-8" points="3.26 11.59 0 9.41 3.26 6.15 3.26 11.59"/><polygon class="cls-8" points="25 9.41 21.74 11.59 21.74 6.15 25 9.41"/><path class="cls-9" d="M23.24,11.23,26.5,9.11V24.33a2.14,2.14,0,0,1-.64,1.53l-3.71-3.71-6-6L16,15.94Z" transform="translate(-1.5 0.3)"/><path class="cls-8" d="M22.15,22.15l3.71,3.71a2.14,2.14,0,0,1-1.53.64H3.67a2.14,2.14,0,0,1-1.53-.64l3.71-3.71,6-6,.15-.23,2,1.32,2-1.32.15.23Z" transform="translate(-1.5 0.3)"/><path class="cls-9" d="M12,15.94l-.15.23-6,6L2.14,25.86a2.14,2.14,0,0,1-.64-1.53V9.11Z" transform="translate(-1.5 0.3)"/><circle class="cls-10" cx="18.48" cy="8.32" r="6.52"/><path class="cls-7" d="M20.54,3.39a.89.89,0,0,0,0,1.26L21.69,5.8h-2.3a2.59,2.59,0,0,0-2.67,2.67V12a.89.89,0,0,0,1.78,0V8.47a.81.81,0,0,1,.89-.89h2.3L20.54,8.73A.88.88,0,0,0,21.79,10l2.67-2.66A.91.91,0,0,0,24.65,7a.83.83,0,0,0,.07-.34.8.8,0,0,0-.07-.34.81.81,0,0,0-.19-.29L21.79,3.39A.88.88,0,0,0,20.54,3.39Z" transform="translate(-1.5 0.3)"/><text x="-1.5" y="0.3"/><rect class="cls-11" x="37.87" y="19.53" width="49.26" height="1.26"/><path class="cls-7" d="M23.24,11.28l-9.24,6-9.24-6V2A.53.53,0,0,1,5.3,1.5H22.7a.53.53,0,0,1,.54.54Z" transform="translate(-1.5 0.3)"/><polygon class="cls-8" points="3.26 11.59 0 9.41 3.26 6.15 3.26 11.59"/><polygon class="cls-8" points="25 9.41 21.74 11.59 21.74 6.15 25 9.41"/><path class="cls-9" d="M23.24,11.23,26.5,9.11V24.33a2.14,2.14,0,0,1-.64,1.53l-3.71-3.71-6-6L16,15.94Z" transform="translate(-1.5 0.3)"/><path class="cls-8" d="M22.15,22.15l3.71,3.71a2.14,2.14,0,0,1-1.53.64H3.67a2.14,2.14,0,0,1-1.53-.64l3.71-3.71,6-6,.15-.23,2,1.32,2-1.32.15.23Z" transform="translate(-1.5 0.3)"/><path class="cls-9" d="M12,15.94l-.15.23-6,6L2.14,25.86a2.14,2.14,0,0,1-.64-1.53V9.11Z" transform="translate(-1.5 0.3)"/><circle class="cls-10" cx="18.48" cy="8.32" r="6.52"/><path class="cls-7" d="M22.7,7.48H20.52V5.3A.54.54,0,0,0,20,4.76a.55.55,0,0,0-.55.54V7.48H17.26a.54.54,0,0,0-.54.54.55.55,0,0,0,.54.55h2.17v2.17a.55.55,0,0,0,.55.54.54.54,0,0,0,.54-.54V8.57H22.7A.55.55,0,0,0,23.24,8,.54.54,0,0,0,22.7,7.48Z" transform="translate(-1.5 0.3)"/></svg>