<svg xmlns="http://www.w3.org/2000/svg" viewBox="0 0 512 408"><defs><style>.cls-1,.cls-7{fill:#adadad;}.cls-2{fill:#9e9e9e;}.cls-3{fill:#8f8f8f;}.cls-4{fill:#090909;}.cls-5{fill:#875757;}.cls-6{fill:#cccccb;}.cls-7{opacity:0.1;}</style></defs><g id="Layer_2" data-name="Layer 2"><g id="Icons"><g id="Offline"><rect class="cls-1" width="512" height="352.73" rx="12.94"/><path class="cls-2" d="M314.07,352.73H197.93s-2.35,38.81-7.06,47H321.13C316.42,391.54,314.07,352.73,314.07,352.73Z"/><path class="cls-3" d="M332,403c-7.05-.88-10.87-3.23-10.87-3.23H190.87S187.05,402.12,180,403s-11.76,1.47-11.76,5H343.76C343.76,404.47,339.06,403.89,332,403Z"/><path class="cls-4" d="M499.06,0H12.94A12.94,12.94,0,0,0,0,12.94V306.47H512V12.94A12.94,12.94,0,0,0,499.06,0Zm-8.25,288.09H21.19V18.39H490.81Z"/><polygon class="cls-5" points="21.19 18.39 21.19 288.09 233.86 288.09 490.81 288.09 490.81 18.39 398.77 18.39 21.19 18.39"/><path class="cls-3" d="M314.07,352.73H197.93s-.35,5.77-1.05,13.33H315.12C314.42,358.5,314.07,352.73,314.07,352.73Z"/><circle cx="256.07" cy="330.69" r="8.41" transform="translate(-49.66 45.29) rotate(-9.22)"/><path class="cls-6" d="M137.3,153.73a38.52,38.52,0,1,1-38.52-38.52A38.5,38.5,0,0,1,137.3,153.73Zm-51.36,0a12.84,12.84,0,1,0,12.84-12.84A12.88,12.88,0,0,0,85.94,153.73Z"/><path class="cls-6" d="M140.51,116.28h49.86v20H165.44v7.49h20v19.9h-20v27.5H140.51Z"/><path class="cls-6" d="M194.65,116.28h49.86v20H219.58v7.49h20v19.9h-20v27.5H194.65Z"/><path class="cls-6" d="M248.79,116.28h24.93v54.89h25v20h-50Z"/><path class="cls-6" d="M303,116.28h25v74.9H303Z"/><path class="cls-6" d="M372.16,191.18l-14.23-24.72v24.72h-25v-74.9h24.82l14.45,29.53V116.28h24.93v74.9Z"/><path class="cls-6" d="M401.91,116.28h50v19.9H426.94v7.49h19.9v20h-19.9v7.49h24.93v20h-50Z"/><path class="cls-7" d="M499.06,0H410L222.63,306.47H512V12.94A12.94,12.94,0,0,0,499.06,0Z"/></g></g></g></svg>