<svg id="Layer_1" data-name="Layer 1" xmlns="http://www.w3.org/2000/svg" viewBox="0 0 180.73 56"><defs><style>.cls-1{fill:#6e3333;}.cls-2{fill:#543030;}.cls-3{fill:#704f4f;}.cls-4{fill:#a6a6a6;}.cls-5{fill:#919191;}.cls-6{fill:#6b6b6b;}.cls-7{fill:#d8d8d8;}</style></defs><g id="Website"><rect class="cls-1" width="64" height="56" rx="5"/><path class="cls-2" d="M66,20H12a5,5,0,0,0-5,5v9H26a5,5,0,0,0,4.9-4H71V25A5,5,0,0,0,66,20Z" transform="translate(-7 -20)"/><path class="cls-3" d="M14,30H12a1,1,0,0,1,0-2h2a1,1,0,0,1,0,2Z" transform="translate(-7 -20)"/><path class="cls-3" d="M20,30H18a1,1,0,0,1,0-2h2a1,1,0,0,1,0,2Z" transform="translate(-7 -20)"/><path class="cls-3" d="M26,30H24a1,1,0,0,1,0-2h2a1,1,0,0,1,0,2Z" transform="translate(-7 -20)"/><path class="cls-3" d="M66,26H41a1,1,0,0,1,0-2H66a1,1,0,0,1,0,2Z" transform="translate(-7 -20)"/><path class="cls-4" d="M61,51a1,1,0,0,0,1-1V42a1,1,0,0,0-1-1H32a1,1,0,0,0-.71.29L30,42.59l-1.29-1.3A1,1,0,0,0,28,41H17a1,1,0,0,0-1,1v8a1,1,0,0,0,1,1,4,4,0,0,1,0,8,1,1,0,0,0-1,1v8a1,1,0,0,0,1,1H28a1,1,0,0,0,.71-.29L30,67.41l1.29,1.3A1,1,0,0,0,32,69H61a1,1,0,0,0,1-1V60a1,1,0,0,0-1-1,4,4,0,0,1,0-8Z" transform="translate(-7 -20)"/><path class="cls-5" d="M30,57a1,1,0,0,1-1-1V54a1,1,0,0,1,2,0v2A1,1,0,0,1,30,57Z" transform="translate(-7 -20)"/><path class="cls-5" d="M30,63a1,1,0,0,1-1-1V60a1,1,0,0,1,2,0v2A1,1,0,0,1,30,63Z" transform="translate(-7 -20)"/><circle class="cls-5" cx="37" cy="35" r="9"/><path class="cls-5" d="M30,51a1,1,0,0,1-1-1V48a1,1,0,0,1,2,0v2A1,1,0,0,1,30,51Z" transform="translate(-7 -20)"/><path class="cls-6" d="M47.51,54.14l-5-3A1,1,0,0,0,41,52v6a1,1,0,0,0,1.51.86l5-3a1,1,0,0,0,.35-1.38A1,1,0,0,0,47.51,54.14Z" transform="translate(-7 -20)"/></g><path class="cls-1" d="M76.27,22H90.72a12.34,12.34,0,1,1,0,24.67H87.51V55.6H76.27ZM87.51,32.51v3.6h2.54a1.78,1.78,0,0,0,1.82-1.78,1.82,1.82,0,0,0-1.82-1.82Z" transform="translate(-7 -20)"/><path class="cls-7" d="M104,22H115.2V46.62h11.23v9H104Z" transform="translate(-7 -20)"/><path class="cls-7" d="M152.88,22l11.33,33.6H152.4L151,51.38H140.69L139.2,55.6H127.39L138.72,22Zm-5,20-2-6-2.07,6Z" transform="translate(-7 -20)"/><path class="cls-7" d="M187.73,22,177,40.62v15H165.84v-15L155.09,22H168l3.46,6,3.46-6Z" transform="translate(-7 -20)"/><path class="cls-1" d="M100.63,63.32v7.2H97.4v-7.2H95V60.71h8.1v2.61Z" transform="translate(-7 -20)"/><path class="cls-1" d="M108.81,60.71l3.31,9.81h-3.45l-.41-1.23h-3l-.43,1.23h-3.45l3.31-9.81Zm-1.47,5.84-.59-1.75-.6,1.75Z" transform="translate(-7 -20)"/><path class="cls-1" d="M116.31,60.57A5,5,0,0,1,119.88,62l-2.38,2.38a1.69,1.69,0,1,0,0,2.39V65.62h3.37v3.85h-1.31a5,5,0,0,1-3.25,1.19,5,5,0,0,1,0-10.09Z" transform="translate(-7 -20)"/><path class="cls-7" d="M131.15,63.32v7.2h-3.23v-7.2h-2.44V60.71h8.1v2.61Z" transform="translate(-7 -20)"/><path class="cls-7" d="M143.59,65.62a5,5,0,1,1-5.05-5.05A5,5,0,0,1,143.59,65.62Zm-6.73,0a1.69,1.69,0,1,0,1.68-1.69A1.69,1.69,0,0,0,136.86,65.62Z" transform="translate(-7 -20)"/><path class="cls-7" d="M154,65.62a5,5,0,1,1-5-5.05A5,5,0,0,1,154,65.62Zm-6.73,0A1.69,1.69,0,1,0,149,63.93,1.69,1.69,0,0,0,147.29,65.62Z" transform="translate(-7 -20)"/><path class="cls-7" d="M154.36,60.71h3.27V67.9h3.27v2.62h-6.54Z" transform="translate(-7 -20)"/></svg>