<svg id="Layer_1" data-name="Layer 1" xmlns="http://www.w3.org/2000/svg" viewBox="0 0 180.7313 56"><defs><style>.cls-1{fill:#6e3333;}.cls-2{fill:#543030;}.cls-3{fill:#704f4f;}.cls-4{fill:#a6a6a6;}.cls-5{fill:#919191;}.cls-6{fill:#6b6b6b;}.cls-7{fill:#d8d8d8;}</style></defs><g id="Website"><rect class="cls-1" width="64" height="56" rx="5"/><path class="cls-2" d="M66,20H12a5,5,0,0,0-5,5v9H26a5.0081,5.0081,0,0,0,4.9-4H71V25A5,5,0,0,0,66,20Z" transform="translate(-7 -20)"/><path class="cls-3" d="M14,30H12a1,1,0,0,1,0-2h2a1,1,0,0,1,0,2Z" transform="translate(-7 -20)"/><path class="cls-3" d="M20,30H18a1,1,0,0,1,0-2h2a1,1,0,0,1,0,2Z" transform="translate(-7 -20)"/><path class="cls-3" d="M26,30H24a1,1,0,0,1,0-2h2a1,1,0,0,1,0,2Z" transform="translate(-7 -20)"/><path class="cls-3" d="M66,26H41a1,1,0,0,1,0-2H66a1,1,0,0,1,0,2Z" transform="translate(-7 -20)"/><path class="cls-4" d="M61,51a1,1,0,0,0,1-1V42a1,1,0,0,0-1-1H32a1,1,0,0,0-.707.293L30,42.586l-1.293-1.293A1,1,0,0,0,28,41H17a1,1,0,0,0-1,1v8a1,1,0,0,0,1,1,4,4,0,0,1,0,8,1,1,0,0,0-1,1v8a1,1,0,0,0,1,1H28a1,1,0,0,0,.707-.293L30,67.414l1.293,1.293A1,1,0,0,0,32,69H61a1,1,0,0,0,1-1V60a1,1,0,0,0-1-1,4,4,0,0,1,0-8Z" transform="translate(-7 -20)"/><path class="cls-5" d="M30,57a1,1,0,0,1-1-1V54a1,1,0,0,1,2,0v2A1,1,0,0,1,30,57Z" transform="translate(-7 -20)"/><path class="cls-5" d="M30,63a1,1,0,0,1-1-1V60a1,1,0,0,1,2,0v2A1,1,0,0,1,30,63Z" transform="translate(-7 -20)"/><circle class="cls-5" cx="37" cy="35" r="9"/><path class="cls-5" d="M30,51a1,1,0,0,1-1-1V48a1,1,0,0,1,2,0v2A1,1,0,0,1,30,51Z" transform="translate(-7 -20)"/><path class="cls-6" d="M47.515,54.143l-5-3A1,1,0,0,0,41,52v6a1,1,0,0,0,1.515.857l5-3a1,1,0,0,0,0-1.714Z" transform="translate(-7 -20)"/></g><path class="cls-1" d="M76.2724,27.9971H90.7216a12.3372,12.3372,0,0,1,0,24.6743H87.5058V61.6H76.2724ZM87.5058,38.51v3.6H90.05a1.7832,1.7832,0,0,0,1.8242-1.7759A1.8235,1.8235,0,0,0,90.05,38.51Z" transform="translate(-7 -20)"/><path class="cls-7" d="M104.0165,27.9971H115.202V52.6235h11.2325V61.6h-22.418Z" transform="translate(-7 -20)"/><path class="cls-7" d="M152.8827,27.9971,164.2118,61.6H152.4032l-1.3926-4.2246H140.6893L139.202,61.6H127.3925l11.3291-33.6025Zm-5.04,20.018-2.0166-6.0009-2.0645,6.0009Z" transform="translate(-7 -20)"/><path class="cls-7" d="M187.7313,27.9971,176.9784,46.6226V61.6H165.8417V46.6226L155.0888,27.9971H167.954l3.456,6,3.4571-6Z" transform="translate(-7 -20)"/><path class="cls-7" d="M85.8856,64.6816A3.5981,3.5981,0,0,1,88.4345,65.74L86.7352,67.43a1.1973,1.1973,0,1,0-.85,2.0488,1.16,1.16,0,0,0,.85-.35l1.6993,1.6992a3.5978,3.5978,0,1,1-2.5489-6.1465Z" transform="translate(-7 -20)"/><path class="cls-7" d="M88.6376,64.7813h2.3389v6.996H88.6376Z" transform="translate(-7 -20)"/><path class="cls-7" d="M95.0956,71.7773l-1.3291-2.3085v2.3085H91.4276v-6.996H93.746l1.35,2.7587V64.7813h2.3281v6.996Z" transform="translate(-7 -20)"/><path class="cls-7" d="M97.8778,64.7813h4.667v1.8593h-2.3281V67.34h1.8584V69.209h-1.8584v.6992h2.3281v1.8691h-4.667Z" transform="translate(-7 -20)"/><path class="cls-7" d="M107.5145,67.9893l1.09-3.208h2.958l.62,6.996h-2.3486l-.2305-2.6982-.9189,2.6982h-2.35l-.919-2.6982-.2295,2.6982h-2.3389l.6094-6.996h2.9688Z" transform="translate(-7 -20)"/><path class="cls-7" d="M117.6942,64.7813l2.3584,6.996h-2.458l-.29-.88h-2.1485l-.31.88h-2.458l2.3584-6.996Zm-1.0488,4.1679-.42-1.25-.43,1.25Z" transform="translate(-7 -20)"/><path class="cls-7" d="M123.9257,71.7773l-1.3291-2.3085v2.3085h-2.3389v-6.996h2.3184l1.35,2.7587V64.7813h2.3281v6.996Z" transform="translate(-7 -20)"/><path class="cls-7" d="M131.8143,64.7813l2.3584,6.996h-2.458l-.29-.88h-2.1484l-.3106.88h-2.458l2.3584-6.996Zm-1.0488,4.1679-.42-1.25-.43,1.25Z" transform="translate(-7 -20)"/><path class="cls-7" d="M137.1747,64.6816a3.5863,3.5863,0,0,1,2.5488,1.0489L138.0243,67.43a1.1992,1.1992,0,1,0,0,1.6992v-.85h2.3984v2.748h-.93a3.5483,3.5483,0,0,1-2.3184.85,3.5977,3.5977,0,0,1,0-7.1954Z" transform="translate(-7 -20)"/><path class="cls-7" d="M140.827,64.7813h4.667v1.8593h-2.3281V67.34h1.8584V69.209h-1.8584v.6992h2.3281v1.8691h-4.667Z" transform="translate(-7 -20)"/><path class="cls-7" d="M150.4647,67.9893l1.09-3.208h2.958l.62,6.996h-2.3486l-.2305-2.6982-.9189,2.6982h-2.35l-.9189-2.6982-.23,2.6982h-2.3389l.6094-6.996h2.9688Z" transform="translate(-7 -20)"/><path class="cls-7" d="M155.4374,64.7813h4.667v1.8593h-2.3281V67.34h1.8584V69.209h-1.8584v.6992h2.3281v1.8691h-4.667Z" transform="translate(-7 -20)"/><path class="cls-7" d="M164.1757,71.7773l-1.3291-2.3085v2.3085h-2.3389v-6.996h2.3184l1.35,2.7587V64.7813h2.3281v6.996Z" transform="translate(-7 -20)"/><path class="cls-7" d="M170.8544,66.6406v5.1367h-2.3086V66.6406h-1.7393V64.7813h5.7774v1.8593Z" transform="translate(-7 -20)"/></svg>