<svg id="Layer_1" data-name="Layer 1" xmlns="http://www.w3.org/2000/svg" viewBox="0 0 151.2869 44.0956"><defs><style>.cls-1{fill:#6e3333;}.cls-2{fill:#543030;}.cls-3{fill:#704f4f;}.cls-4{fill:#a6a6a6;}.cls-5{fill:#919191;}.cls-6{fill:#6b6b6b;}.cls-7{fill:#d8d8d8;}</style></defs><g id="Website"><rect class="cls-1" width="38.6495" height="33.8183" rx="3.0195"/><path class="cls-2" d="M72.0744,27.7813h-32.61a3.02,3.02,0,0,0-3.02,3.0195v5.4351H47.9185A3.0243,3.0243,0,0,0,50.8776,33.82H75.0939v-3.02A3.02,3.02,0,0,0,72.0744,27.7813Z" transform="translate(-36.4444 -27.7813)"/><path class="cls-3" d="M40.6717,33.82H39.4639a.6039.6039,0,0,1,0-1.2078h1.2078a.6039.6039,0,1,1,0,1.2078Z" transform="translate(-36.4444 -27.7813)"/><path class="cls-3" d="M44.2951,33.82H43.0873a.6039.6039,0,0,1,0-1.2078h1.2078a.6039.6039,0,0,1,0,1.2078Z" transform="translate(-36.4444 -27.7813)"/><path class="cls-3" d="M47.9185,33.82H46.7107a.6039.6039,0,1,1,0-1.2078h1.2078a.6039.6039,0,1,1,0,1.2078Z" transform="translate(-36.4444 -27.7813)"/><path class="cls-3" d="M72.0744,31.4047H56.977a.6039.6039,0,1,1,0-1.2078H72.0744a.6039.6039,0,0,1,0,1.2078Z" transform="translate(-36.4444 -27.7813)"/><path class="cls-4" d="M69.0549,46.5022a.6039.6039,0,0,0,.6039-.6039V41.0671a.6039.6039,0,0,0-.6039-.6039H51.5419a.6041.6041,0,0,0-.427.1769l-.7808.7809-.7808-.7809a.6043.6043,0,0,0-.427-.1769H42.4834a.6039.6039,0,0,0-.6039.6039v4.8312a.6039.6039,0,0,0,.6039.6039,2.4156,2.4156,0,1,1,0,4.8311.6039.6039,0,0,0-.6039.6039v4.8312a.6039.6039,0,0,0,.6039.6039h6.6429a.6043.6043,0,0,0,.427-.1769l.7808-.7809.7808.7809a.6041.6041,0,0,0,.427.1769h17.513a.6039.6039,0,0,0,.6039-.6039V51.9372a.6039.6039,0,0,0-.6039-.6039,2.4156,2.4156,0,1,1,0-4.8311Z" transform="translate(-36.4444 -27.7813)"/><path class="cls-5" d="M50.3341,50.1256a.6039.6039,0,0,1-.6039-.6039V48.3139a.6039.6039,0,1,1,1.2078,0v1.2078A.6039.6039,0,0,1,50.3341,50.1256Z" transform="translate(-36.4444 -27.7813)"/><path class="cls-5" d="M50.3341,53.7489a.6039.6039,0,0,1-.6039-.6039V51.9372a.6039.6039,0,1,1,1.2078,0V53.145A.6039.6039,0,0,1,50.3341,53.7489Z" transform="translate(-36.4444 -27.7813)"/><circle class="cls-5" cx="22.3442" cy="21.1364" r="5.4351"/><path class="cls-5" d="M50.3341,46.5022a.6039.6039,0,0,1-.6039-.6039V44.6905a.6039.6039,0,0,1,1.2078,0v1.2078A.6039.6039,0,0,1,50.3341,46.5022Z" transform="translate(-36.4444 -27.7813)"/><path class="cls-6" d="M60.9114,48.4l-3.02-1.8117a.6039.6039,0,0,0-.9149.5176V50.73a.6039.6039,0,0,0,.9149.5175l3.02-1.8117a.604.604,0,0,0,0-1.0351Z" transform="translate(-36.4444 -27.7813)"/></g><path class="cls-1" d="M76.2724,27.9971H90.7216a12.3372,12.3372,0,0,1,0,24.6743H87.5058V61.6H76.2724ZM87.5058,38.51v3.6H90.05a1.7832,1.7832,0,0,0,1.8242-1.7759A1.8235,1.8235,0,0,0,90.05,38.51Z" transform="translate(-36.4444 -27.7813)"/><path class="cls-7" d="M104.0165,27.9971H115.202V52.6235h11.2325V61.6h-22.418Z" transform="translate(-36.4444 -27.7813)"/><path class="cls-7" d="M152.8827,27.9971,164.2118,61.6H152.4032l-1.3926-4.2246H140.6893L139.202,61.6H127.3925l11.3291-33.6025Zm-5.04,20.018-2.0166-6.0009-2.0645,6.0009Z" transform="translate(-36.4444 -27.7813)"/><path class="cls-7" d="M187.7313,27.9971,176.9784,46.6226V61.6H165.8417V46.6226L155.0888,27.9971H167.954l3.456,6,3.4571-6Z" transform="translate(-36.4444 -27.7813)"/><path class="cls-7" d="M85.8856,64.6816A3.5981,3.5981,0,0,1,88.4345,65.74L86.7352,67.43a1.1973,1.1973,0,1,0-.85,2.0488,1.16,1.16,0,0,0,.85-.35l1.6993,1.6992a3.5978,3.5978,0,1,1-2.5489-6.1465Z" transform="translate(-36.4444 -27.7813)"/><path class="cls-7" d="M88.6376,64.7813h2.3389v6.996H88.6376Z" transform="translate(-36.4444 -27.7813)"/><path class="cls-7" d="M95.0956,71.7773l-1.3291-2.3085v2.3085H91.4276v-6.996H93.746l1.35,2.7587V64.7813h2.3281v6.996Z" transform="translate(-36.4444 -27.7813)"/><path class="cls-7" d="M97.8778,64.7813h4.667v1.8593h-2.3281V67.34h1.8584V69.209h-1.8584v.6992h2.3281v1.8691h-4.667Z" transform="translate(-36.4444 -27.7813)"/><path class="cls-7" d="M107.5145,67.9893l1.09-3.208h2.958l.62,6.996h-2.3486l-.2305-2.6982-.9189,2.6982h-2.35l-.919-2.6982-.2295,2.6982h-2.3389l.6094-6.996h2.9688Z" transform="translate(-36.4444 -27.7813)"/><path class="cls-7" d="M117.6942,64.7813l2.3584,6.996h-2.458l-.29-.88h-2.1485l-.31.88h-2.458l2.3584-6.996Zm-1.0488,4.1679-.42-1.25-.43,1.25Z" transform="translate(-36.4444 -27.7813)"/><path class="cls-7" d="M123.9257,71.7773l-1.3291-2.3085v2.3085h-2.3389v-6.996h2.3184l1.35,2.7587V64.7813h2.3281v6.996Z" transform="translate(-36.4444 -27.7813)"/><path class="cls-7" d="M131.8143,64.7813l2.3584,6.996h-2.458l-.29-.88h-2.1484l-.3106.88h-2.458l2.3584-6.996Zm-1.0488,4.1679-.42-1.25-.43,1.25Z" transform="translate(-36.4444 -27.7813)"/><path class="cls-7" d="M137.1747,64.6816a3.5863,3.5863,0,0,1,2.5488,1.0489L138.0243,67.43a1.1992,1.1992,0,1,0,0,1.6992v-.85h2.3984v2.748h-.93a3.5483,3.5483,0,0,1-2.3184.85,3.5977,3.5977,0,0,1,0-7.1954Z" transform="translate(-36.4444 -27.7813)"/><path class="cls-7" d="M140.827,64.7813h4.667v1.8593h-2.3281V67.34h1.8584V69.209h-1.8584v.6992h2.3281v1.8691h-4.667Z" transform="translate(-36.4444 -27.7813)"/><path class="cls-7" d="M150.4647,67.9893l1.09-3.208h2.958l.62,6.996h-2.3486l-.2305-2.6982-.9189,2.6982h-2.35l-.9189-2.6982-.23,2.6982h-2.3389l.6094-6.996h2.9688Z" transform="translate(-36.4444 -27.7813)"/><path class="cls-7" d="M155.4374,64.7813h4.667v1.8593h-2.3281V67.34h1.8584V69.209h-1.8584v.6992h2.3281v1.8691h-4.667Z" transform="translate(-36.4444 -27.7813)"/><path class="cls-7" d="M164.1757,71.7773l-1.3291-2.3085v2.3085h-2.3389v-6.996h2.3184l1.35,2.7587V64.7813h2.3281v6.996Z" transform="translate(-36.4444 -27.7813)"/><path class="cls-7" d="M170.8544,66.6406v5.1367h-2.3086V66.6406h-1.7393V64.7813h5.7774v1.8593Z" transform="translate(-36.4444 -27.7813)"/></svg>