<svg xmlns="http://www.w3.org/2000/svg" viewBox="0 0 60.85 84.69"><defs><style>.cls-1{fill:#b0aa9d;}.cls-2{fill:#ededed;}.cls-3{fill:#db5555;}.cls-4{fill:#f7f7f7;}.cls-5{fill:#e27a7a;}.cls-6{fill:#c2bfad;}</style></defs><g id="Layer_2" data-name="Layer 2"><g id="Layer_3" data-name="Layer 3"><path class="cls-1" d="M59.46,18.93c0-3.18-2-5.72-5.12-5.72l-.08-.11V11.31a5.72,5.72,0,1,0-11.43,0v-.15A6.06,6.06,0,0,0,36.77,5.1,6.83,6.83,0,0,0,32.35,7l0-1.39h0A5.6,5.6,0,0,0,21.62,3.39,7.37,7.37,0,0,0,10.79,12.6l-.49-.55a5.44,5.44,0,0,0-3.11-1,5.78,5.78,0,0,0-5.81,5.49l.05,2.76Z"/><path class="cls-2" d="M7.5,78.89l.69,4.53a1.4,1.4,0,0,0,1.35,1.27H50.88a1.47,1.47,0,0,0,1.4-1.37l.52-4.43Z"/><path class="cls-3" d="M1.36,17.6v0A80.24,80.24,0,0,0,1.84,27.7L7.5,78.89H52.8l6.13-52a80.74,80.74,0,0,0,.55-8.37v-.9Z"/><path class="cls-4" d="M13.52,83.42l-.69-4.53H7.5l.69,4.53a1.4,1.4,0,0,0,1.35,1.27h5.33A1.4,1.4,0,0,1,13.52,83.42Z"/><path class="cls-5" d="M6.69,17.65v0H1.36v0A80.24,80.24,0,0,0,1.84,27.7L7.5,78.89h5.33L7.17,27.7A80.24,80.24,0,0,1,6.69,17.65Z"/><polygon class="cls-1" points="18.02 17.6 2.42 32.98 3.23 40.29 26.24 17.6 18.02 17.6"/><polygon class="cls-1" points="42.53 17.6 4.83 54.78 5.64 62.09 50.76 17.6 42.53 17.6"/><polygon class="cls-1" points="7.24 76.57 7.5 78.89 13.12 78.89 58.02 34.62 59.1 25.44 7.24 76.57"/><polygon class="cls-1" points="37.63 78.89 54.8 61.97 55.88 52.79 29.4 78.89 37.63 78.89"/><polygon class="cls-6" points="3.23 40.29 8.04 35.55 7.23 28.24 2.42 32.98 3.23 40.29"/><polygon class="cls-6" points="5.64 62.09 5.64 62.09 4.95 55.86 5.64 62.09"/><polygon class="cls-6" points="9.64 50.03 4.83 54.78 4.95 55.86 5.64 62.09 10.45 57.35 9.64 50.03"/><polygon class="cls-6" points="7.24 76.57 7.5 78.89 7.24 76.57 7.24 76.57"/><polygon class="cls-6" points="7.24 76.57 7.5 78.89 12.83 78.89 12.05 71.83 7.24 76.57"/><rect class="cls-2" y="17.65" width="60.85" height="5.62" rx="1.11"/><path class="cls-4" d="M4.88,22.17V18.76A1.11,1.11,0,0,1,6,17.65H1.11A1.11,1.11,0,0,0,0,18.76v3.41a1.11,1.11,0,0,0,1.11,1.11H6A1.11,1.11,0,0,1,4.88,22.17Z"/><path class="cls-6" d="M17.1,8.37a2.77,2.77,0,1,1-2.77-2.76A2.77,2.77,0,0,1,17.1,8.37Z"/><circle class="cls-6" cx="25.26" cy="4.67" r="2.3"/><circle class="cls-6" cx="22.33" cy="11.69" r="1.66"/><path class="cls-6" d="M37,10.75a2.6,2.6,0,1,1-2.6-2.59A2.6,2.6,0,0,1,37,10.75Z"/><circle class="cls-6" cx="46.11" cy="9.1" r="1.66"/></g></g></svg>