<?xml version="1.0" encoding="utf-8"?>
<!-- Generator: Adobe Illustrator 24.1.2, SVG Export Plug-In . SVG Version: 6.00 Build 0)  -->
<svg version="1.1" id="Layer_1" xmlns="http://www.w3.org/2000/svg" xmlns:xlink="http://www.w3.org/1999/xlink" x="0px" y="0px"
	 viewBox="0 0 78.9 26.8" style="enable-background:new 0 0 78.9 26.8;" xml:space="preserve">
<style type="text/css">
	.st0{fill:#CCCCCC;}
	.st1{font-family:'ColomboSansFont-Regular';}
	.st2{font-size:12px;}
	.st3{letter-spacing:-2;}
	.st4{fill:#D8D8D8;}
	.st5{fill:#875757;}
	.st6{fill:#8E6565;}
	.st7{fill:#94B28D;}
	.st8{opacity:0.8;fill:#723535;enable-background:new    ;}
</style>
<text transform="matrix(1 0 0 1 30.6402 18.53)" class="st0 st1 st2">R</text>
<text transform="matrix(1 0 0 1 38.0802 18.53)" class="st0 st1 st2">e</text>
<text transform="matrix(1 0 0 1 44.2202 18.53)" class="st0 st1 st2">p</text>
<text transform="matrix(1 0 0 1 51.1602 18.53)" class="st0 st1 st2 st3">l</text>
<text transform="matrix(1 0 0 1 54.7202 18.53)" class="st0 st1 st2">y</text>
<path class="st4" d="M21.7,11.6l-9.2,6l-9.2-6V2.3c0-0.3,0.3-0.5,0.5-0.5h17.4c0.3,0,0.5,0.2,0.5,0.5c0,0,0,0,0,0L21.7,11.6z"/>
<polygon class="st5" points="3.3,11.6 0,9.4 3.3,6.2 "/>
<polygon class="st5" points="25,9.4 21.7,11.6 21.7,6.2 "/>
<path class="st6" d="M21.7,11.5L25,9.4v15.2c0,0.6-0.2,1.1-0.6,1.5l-3.7-3.7l-6-6l-0.2-0.2L21.7,11.5z"/>
<path class="st5" d="M20.6,22.4l3.7,3.7c-0.4,0.4-1,0.6-1.5,0.6H2.2c-0.6,0-1.1-0.2-1.5-0.6l3.7-3.7l6-6l0.1-0.2l2,1.3l2-1.3
	l0.1,0.2L20.6,22.4z"/>
<path class="st6" d="M10.5,16.2l-0.1,0.2l-6,6l-3.7,3.7c-0.4-0.4-0.6-1-0.6-1.5V9.4L10.5,16.2z"/>
<circle class="st7" cx="18.5" cy="8.3" r="6.5"/>
<path class="st4" d="M19,3.7c-0.3,0.3-0.3,0.9,0,1.3c0,0,0,0,0,0l1.1,1.2h-2.3c-1.4,0-2.6,1.1-2.7,2.5c0,0.1,0,0.1,0,0.2v3.5
	c0,0.5,0.4,0.9,0.9,0.9c0.5,0,0.9-0.4,0.9-0.9V8.8c0-0.4,0.3-0.8,0.7-0.9c0.1,0,0.1,0,0.2,0h2.3L19,9c-0.4,0.3-0.4,0.9,0,1.3
	s0.9,0.4,1.3,0l0,0L23,7.6c0.1-0.1,0.2-0.2,0.2-0.3c0-0.1,0.1-0.2,0.1-0.3c0-0.1,0-0.2-0.1-0.3c0-0.1-0.1-0.2-0.2-0.3l-2.7-2.6
	C19.9,3.3,19.4,3.3,19,3.7C19,3.7,19,3.7,19,3.7z"/>
<rect x="35" y="21.4" class="st8" width="24" height="1.3"/>
</svg>
