<svg id="Layer_1" data-name="Layer 1" xmlns="http://www.w3.org/2000/svg" viewBox="0 0 62.62 25"><defs><style>.cls-1{fill:#ccc;}.cls-2{fill:#d8d8d8;}.cls-3{fill:#875757;}.cls-4{fill:#8e6565;}.cls-5{fill:#94b28d;}.cls-6{fill:#723535;opacity:0.8;}</style></defs><path class="cls-1" d="M31.88,9.83h3.61a3.1,3.1,0,0,1,3.08,3.09,3,3,0,0,1-1.09,2.33l1.71,3H36L34.67,16v2.23H31.88Zm2.79,2.64v.9h.64a.45.45,0,0,0,0-.9Z" transform="translate(-1.5 -1.5)"/><path class="cls-1" d="M39.32,9.83h5.6v2.24h-2.8v.83h2.24v2.25H42.12V16h2.8v2.24h-5.6Z" transform="translate(-1.5 -1.5)"/><path class="cls-1" d="M45.46,9.83h3.61a3.09,3.09,0,0,1,0,6.17h-.8v2.23H45.46Zm2.81,2.63v.9h.63a.44.44,0,0,0,.46-.44.46.46,0,0,0-.46-.46Z" transform="translate(-1.5 -1.5)"/><path class="cls-1" d="M52.4,9.83h2.79V16H58v2.24H52.4Z" transform="translate(-1.5 -1.5)"/><path class="cls-1" d="M64.12,9.83l-2.69,4.66v3.74H58.65V14.49L56,9.83h3.22l.86,1.5.86-1.5Z" transform="translate(-1.5 -1.5)"/><path class="cls-2" d="M23.24,11.28l-9.24,6-9.24-6V2A.53.53,0,0,1,5.3,1.5H22.7a.53.53,0,0,1,.54.54Z" transform="translate(-1.5 -1.5)"/><polygon class="cls-3" points="3.26 9.78 0 7.61 3.26 4.35 3.26 9.78"/><polygon class="cls-3" points="25 7.61 21.74 9.78 21.74 4.35 25 7.61"/><path class="cls-4" d="M23.24,11.23,26.5,9.11V24.33a2.14,2.14,0,0,1-.64,1.53l-3.71-3.71-6-6L16,15.94Z" transform="translate(-1.5 -1.5)"/><path class="cls-3" d="M22.15,22.15l3.71,3.71a2.14,2.14,0,0,1-1.53.64H3.67a2.14,2.14,0,0,1-1.53-.64l3.71-3.71,6-6,.15-.23,2,1.32,2-1.32.15.23Z" transform="translate(-1.5 -1.5)"/><path class="cls-4" d="M12,15.94l-.15.23-6,6L2.14,25.86a2.14,2.14,0,0,1-.64-1.53V9.11Z" transform="translate(-1.5 -1.5)"/><circle class="cls-5" cx="18.48" cy="6.52" r="6.52"/><path class="cls-2" d="M20.54,3.39a.89.89,0,0,0,0,1.26L21.69,5.8h-2.3a2.59,2.59,0,0,0-2.67,2.67V12a.89.89,0,0,0,1.78,0V8.47a.81.81,0,0,1,.89-.89h2.3L20.54,8.73A.88.88,0,0,0,21.79,10l2.67-2.66A.91.91,0,0,0,24.65,7a.83.83,0,0,0,.07-.34.8.8,0,0,0-.07-.34.81.81,0,0,0-.19-.29L21.79,3.39A.88.88,0,0,0,20.54,3.39Z" transform="translate(-1.5 -1.5)"/><rect class="cls-6" x="33.5" y="19.72" width="23.81" height="1.26"/><path class="cls-2" d="M23.24,11.28l-9.24,6-9.24-6V2A.53.53,0,0,1,5.3,1.5H22.7a.53.53,0,0,1,.54.54Z" transform="translate(-1.5 -1.5)"/><polygon class="cls-3" points="3.26 9.78 0 7.61 3.26 4.35 3.26 9.78"/><polygon class="cls-3" points="25 7.61 21.74 9.78 21.74 4.35 25 7.61"/><path class="cls-4" d="M23.24,11.23,26.5,9.11V24.33a2.14,2.14,0,0,1-.64,1.53l-3.71-3.71-6-6L16,15.94Z" transform="translate(-1.5 -1.5)"/><path class="cls-3" d="M22.15,22.15l3.71,3.71a2.14,2.14,0,0,1-1.53.64H3.67a2.14,2.14,0,0,1-1.53-.64l3.71-3.71,6-6,.15-.23,2,1.32,2-1.32.15.23Z" transform="translate(-1.5 -1.5)"/><path class="cls-4" d="M12,15.94l-.15.23-6,6L2.14,25.86a2.14,2.14,0,0,1-.64-1.53V9.11Z" transform="translate(-1.5 -1.5)"/><circle class="cls-5" cx="18.48" cy="6.52" r="6.52"/><path class="cls-2" d="M22.7,7.48H20.52V5.3A.54.54,0,0,0,20,4.76a.55.55,0,0,0-.55.54V7.48H17.26a.54.54,0,0,0-.54.54.55.55,0,0,0,.54.55h2.17v2.17a.55.55,0,0,0,.55.54.54.54,0,0,0,.54-.54V8.57H22.7A.55.55,0,0,0,23.24,8,.54.54,0,0,0,22.7,7.48Z" transform="translate(-1.5 -1.5)"/></svg>