<svg xmlns="http://www.w3.org/2000/svg" viewBox="0 0 62.97 24.85"><defs><style>.cls-1{font-size:12px;fill:#ccc;font-family:ColomboSansFont-Regular, Colombo Sans Font;}.cls-2{letter-spacing:-0.03em;}.cls-3{letter-spacing:0em;}.cls-4{letter-spacing:-0.02em;}.cls-5{letter-spacing:-0.21em;}.cls-6{fill:#d8d8d8;}.cls-7{fill:#875757;}.cls-8{fill:#8e6565;}.cls-9{fill:#94b28d;}</style></defs><g id="Layer_2" data-name="Layer 2"><text class="cls-1" transform="translate(30.25 17.55)"><tspan class="cls-2">R</tspan><tspan class="cls-3" x="7.44" y="0">e</tspan><tspan class="cls-4" x="13.58" y="0">p</tspan><tspan class="cls-5" x="20.52" y="0">l</tspan><tspan x="24.08" y="0">y</tspan></text></g><g id="Layer_1" data-name="Layer 1"><path class="cls-6" d="M22.61,9.8l-9.19,5.94L4.24,9.8V.62A.53.53,0,0,1,4.78.08H22.07a.53.53,0,0,1,.54.54Z" transform="translate(-1 -0.08)"/><polygon class="cls-7" points="3.24 9.72 0 7.56 3.24 4.32 3.24 9.72"/><polygon class="cls-7" points="24.85 7.56 21.61 9.72 21.61 4.32 24.85 7.56"/><path class="cls-8" d="M22.61,9.75l3.24-2.11V22.76a2.15,2.15,0,0,1-.63,1.53L21.53,20.6l-6-5.94-.15-.23Z" transform="translate(-1 -0.08)"/><path class="cls-7" d="M21.53,20.6l3.69,3.69a2.19,2.19,0,0,1-1.53.63H3.16a2.19,2.19,0,0,1-1.53-.63L5.32,20.6l5.94-5.94.15-.23,2,1.31,2-1.31.15.23Z" transform="translate(-1 -0.08)"/><path class="cls-8" d="M11.41,14.43l-.15.23L5.32,20.6,1.63,24.29A2.15,2.15,0,0,1,1,22.76V7.64Z" transform="translate(-1 -0.08)"/><circle class="cls-9" cx="18.37" cy="6.48" r="6.48"/><path class="cls-6" d="M19.92,2a.88.88,0,0,0,0,1.25l1.14,1.14H18.78A2.58,2.58,0,0,0,16.12,7v3.54a.89.89,0,0,0,1.77,0V7a.81.81,0,0,1,.89-.88h2.28L19.92,7.26a.88.88,0,0,0,0,1.25.89.89,0,0,0,1.25,0l2.65-2.65A.81.81,0,0,0,24,5.57a.8.8,0,0,0,.07-.34A.83.83,0,0,0,24,4.89a.87.87,0,0,0-.19-.28L21.17,2A.88.88,0,0,0,19.92,2Z" transform="translate(-1 -0.08)"/></g></svg>