<svg id="Layer_1" data-name="Layer 1" xmlns="http://www.w3.org/2000/svg" viewBox="0 0 78.86 26.8"><defs><style>.cls-1{font-size:12px;fill:#ccc;font-family:ColomboSansFont-Regular, Colombo Sans Font;}.cls-2{letter-spacing:-0.03em;}.cls-3{letter-spacing:0em;}.cls-4{letter-spacing:-0.02em;}.cls-5{letter-spacing:-0.21em;}.cls-6{fill:#d8d8d8;}.cls-7{fill:#875757;}.cls-8{fill:#8e6565;}.cls-9{fill:#94b28d;}.cls-10{fill:#723535;opacity:0.8;}</style></defs><text class="cls-1" transform="translate(46.14 18.53)"><tspan class="cls-2">R</tspan><tspan class="cls-3" x="7.44" y="0">e</tspan><tspan class="cls-4" x="13.58" y="0">p</tspan><tspan class="cls-5" x="20.52" y="0">l</tspan><tspan x="24.08" y="0">y</tspan></text><path class="cls-6" d="M23.24,11.28l-9.24,6-9.24-6V2A.53.53,0,0,1,5.3,1.5H22.7a.53.53,0,0,1,.54.54Z" transform="translate(-1.5 0.3)"/><polygon class="cls-7" points="3.26 11.59 0 9.41 3.26 6.15 3.26 11.59"/><polygon class="cls-7" points="25 9.41 21.74 11.59 21.74 6.15 25 9.41"/><path class="cls-8" d="M23.24,11.23,26.5,9.11V24.33a2.14,2.14,0,0,1-.64,1.53l-3.71-3.71-6-6L16,15.94Z" transform="translate(-1.5 0.3)"/><path class="cls-7" d="M22.15,22.15l3.71,3.71a2.14,2.14,0,0,1-1.53.64H3.67a2.14,2.14,0,0,1-1.53-.64l3.71-3.71,6-6,.15-.23,2,1.32,2-1.32.15.23Z" transform="translate(-1.5 0.3)"/><path class="cls-8" d="M12,15.94l-.15.23-6,6L2.14,25.86a2.14,2.14,0,0,1-.64-1.53V9.11Z" transform="translate(-1.5 0.3)"/><circle class="cls-9" cx="18.48" cy="8.32" r="6.52"/><path class="cls-6" d="M20.54,3.39a.89.89,0,0,0,0,1.26L21.69,5.8h-2.3a2.59,2.59,0,0,0-2.67,2.67V12a.89.89,0,0,0,1.78,0V8.47a.81.81,0,0,1,.89-.89h2.3L20.54,8.73A.88.88,0,0,0,21.79,10l2.67-2.66A.91.91,0,0,0,24.65,7a.83.83,0,0,0,.07-.34.8.8,0,0,0-.07-.34.81.81,0,0,0-.19-.29L21.79,3.39A.88.88,0,0,0,20.54,3.39Z" transform="translate(-1.5 0.3)"/><text x="-1.5" y="0.3"/><rect class="cls-10" x="49.5" y="21.53" width="23.81" height="1.26"/></svg>