<svg id="Layer_1" data-name="Layer 1" xmlns="http://www.w3.org/2000/svg" viewBox="0 0 62.6172 25"><defs><style>.cls-1{fill:#ccc;}.cls-2{fill:#d8d8d8;}.cls-3{fill:#875757;}.cls-4{fill:#8e6565;}.cls-5{fill:#94b28d;}.cls-6{fill:#723535;opacity:0.8;}</style></defs><path class="cls-1" d="M31.8784,9.8345h3.61a3.0973,3.0973,0,0,1,3.082,3.0825,3.0388,3.0388,0,0,1-1.0918,2.3379L39.1948,18.23H35.9565L34.6733,15.999V18.23H31.8784Zm2.7949,2.6386v.8995h.6358a.4554.4554,0,0,0,.4551-.4556.4455.4455,0,0,0-.4551-.4439Z" transform="translate(-1.5 -1.5)"/><path class="cls-1" d="M39.3188,9.8345h5.6006v2.2309H42.1245v.8394H44.356v2.2427H42.1245v.84h2.7949V18.23H39.3188Z" transform="translate(-1.5 -1.5)"/><path class="cls-1" d="M45.4624,9.8345h3.6094a3.0823,3.0823,0,1,1,0,6.1645h-.8037V18.23H45.4624Zm2.8057,2.6264v.9h.6357a.4457.4457,0,0,0,.4561-.4438.456.456,0,0,0-.4561-.4561Z" transform="translate(-1.5 -1.5)"/><path class="cls-1" d="M52.3984,9.8345h2.794v6.1528H57.999V18.23H52.3984Z" transform="translate(-1.5 -1.5)"/><path class="cls-1" d="M64.1172,9.8345l-2.6865,4.6533V18.23H58.6484V14.4878L55.9619,9.8345h3.2139l.8633,1.4995.8642-1.4995Z" transform="translate(-1.5 -1.5)"/><path class="cls-2" d="M23.2391,11.2826,14,17.2609,4.7609,11.2826V2.0435A.5323.5323,0,0,1,5.3043,1.5H22.6957a.5322.5322,0,0,1,.5434.5435Z" transform="translate(-1.5 -1.5)"/><polygon class="cls-3" points="3.261 9.783 0 7.609 3.261 4.348 3.261 9.783"/><polygon class="cls-3" points="25 7.609 21.739 9.783 21.739 4.348 25 7.609"/><path class="cls-4" d="M23.2391,11.2337,26.5,9.1087V24.3261a2.1875,2.1875,0,0,1-.6359,1.538l-3.7119-3.7119-5.9783-5.9783-.1522-.2337Z" transform="translate(-1.5 -1.5)"/><path class="cls-3" d="M22.1522,22.1522l3.7119,3.7119a2.1875,2.1875,0,0,1-1.538.6359H3.6739a2.1875,2.1875,0,0,1-1.538-.6359l3.7119-3.7119,5.9783-5.9783.1522-.2337L14,17.2609,16.0217,15.94l.1522.2337Z" transform="translate(-1.5 -1.5)"/><path class="cls-4" d="M11.9783,15.94l-.1522.2337L5.8478,22.1522,2.1359,25.8641A2.1875,2.1875,0,0,1,1.5,24.3261V9.1087Z" transform="translate(-1.5 -1.5)"/><circle class="cls-5" cx="18.4783" cy="6.5217" r="6.5217"/><path class="cls-2" d="M20.5352,3.391a.8891.8891,0,0,0,0,1.2575l1.15,1.15h-2.3a2.5929,2.5929,0,0,0-2.668,2.668v3.5573a.8893.8893,0,1,0,1.7786,0V8.4664a.8137.8137,0,0,1,.8894-.8893h2.3l-1.15,1.15a.8893.8893,0,0,0,1.2576,1.2576L24.46,7.3171a.8921.8921,0,0,0,0-1.2587L21.7928,3.391A.889.889,0,0,0,20.5352,3.391Z" transform="translate(-1.5 -1.5)"/><rect class="cls-6" x="33.5005" y="19.7222" width="23.8148" height="1.2593"/><path class="cls-2" d="M23.2391,11.2826,14,17.2609,4.7609,11.2826V2.0435A.5323.5323,0,0,1,5.3043,1.5H22.6957a.5322.5322,0,0,1,.5434.5435Z" transform="translate(-1.5 -1.5)"/><polygon class="cls-3" points="3.261 9.783 0 7.609 3.261 4.348 3.261 9.783"/><polygon class="cls-3" points="25 7.609 21.739 9.783 21.739 4.348 25 7.609"/><path class="cls-4" d="M23.2391,11.2337,26.5,9.1087V24.3261a2.1875,2.1875,0,0,1-.6359,1.538l-3.7119-3.7119-5.9783-5.9783-.1522-.2337Z" transform="translate(-1.5 -1.5)"/><path class="cls-3" d="M22.1522,22.1522l3.7119,3.7119a2.1875,2.1875,0,0,1-1.538.6359H3.6739a2.1875,2.1875,0,0,1-1.538-.6359l3.7119-3.7119,5.9783-5.9783.1522-.2337L14,17.2609,16.0217,15.94l.1522.2337Z" transform="translate(-1.5 -1.5)"/><path class="cls-4" d="M11.9783,15.94l-.1522.2337L5.8478,22.1522,2.1359,25.8641A2.1875,2.1875,0,0,1,1.5,24.3261V9.1087Z" transform="translate(-1.5 -1.5)"/><circle class="cls-5" cx="18.4783" cy="6.5217" r="6.5217"/><path class="cls-2" d="M22.6957,7.4783h-2.174V5.3043a.5435.5435,0,0,0-1.0869,0v2.174H17.2609a.5435.5435,0,1,0,0,1.0869h2.1739v2.1739a.5435.5435,0,1,0,1.0869,0V8.5652h2.174a.5435.5435,0,0,0,0-1.0869Z" transform="translate(-1.5 -1.5)"/></svg>