<svg xmlns="http://www.w3.org/2000/svg" viewBox="0 0 348 372.5"><defs><style>.cls-1{fill:#5c3e3d;}.cls-2{fill:#7c6563;}.cls-3{fill:#715756;}.cls-4{fill:#a3a3a3;}.cls-5{fill:#7a7a7a;}.cls-6{fill:#cfcfcf;}.cls-7{fill:#644846;}.cls-8{fill:#ababab;}.cls-9{fill:#8a8a8a;}.cls-10{fill:#aaa;}.cls-11{fill:#757575;}.cls-12{fill:#c4c4c4;}</style></defs><g id="Layer_2" data-name="Layer 2"><g id="Icons"><rect class="cls-1" x="28.25" y="39.92" width="291.5" height="286.23"/><rect class="cls-2" width="348" height="113.83" rx="16.42"/><path class="cls-3" d="M348,91v6.41a16.42,16.42,0,0,1-16.42,16.42H16.42A16.42,16.42,0,0,1,0,97.41v-81A16.42,16.42,0,0,1,16.42,0H26.5V74.58A16.42,16.42,0,0,0,42.92,91Z"/><rect class="cls-4" x="26" y="42.92" width="28" height="28" rx="5.08"/><rect class="cls-5" x="62.5" y="42.92" width="28" height="28" rx="5.08"/><rect class="cls-6" x="99" y="42.92" width="28" height="28" rx="5.08"/><rect class="cls-7" x="169" y="12.92" width="148.5" height="21.12" rx="7.5"/><rect class="cls-7" x="169" y="46.36" width="148.5" height="21.12" rx="7.5"/><rect class="cls-7" x="169" y="79.8" width="148.5" height="21.12" rx="7.5"/><rect class="cls-2" y="129.33" width="348" height="113.83" rx="16.42"/><path class="cls-3" d="M348,220.33v6.41a16.42,16.42,0,0,1-16.42,16.42H16.42A16.42,16.42,0,0,1,0,226.74v-81a16.42,16.42,0,0,1,16.42-16.42H26.5v74.58a16.41,16.41,0,0,0,16.42,16.42Z"/><rect class="cls-8" x="26" y="172.25" width="28" height="28" rx="5.08"/><rect class="cls-9" x="62.5" y="172.25" width="28" height="28" rx="5.08"/><rect class="cls-10" x="99" y="172.25" width="28" height="28" rx="5.08"/><rect class="cls-7" x="169" y="142.25" width="148.5" height="21.12" rx="7.5"/><rect class="cls-7" x="169" y="175.69" width="148.5" height="21.12" rx="7.5"/><rect class="cls-7" x="169" y="209.13" width="148.5" height="21.12" rx="7.5"/><rect class="cls-2" y="258.67" width="348" height="113.83" rx="16.42"/><path class="cls-3" d="M348,349.67v6.41a16.42,16.42,0,0,1-16.42,16.42H16.42A16.42,16.42,0,0,1,0,356.08v-81a16.42,16.42,0,0,1,16.42-16.41H26.5v74.58a16.42,16.42,0,0,0,16.42,16.42Z"/><rect class="cls-11" x="26" y="301.58" width="28" height="28" rx="5.08"/><rect class="cls-12" x="62.5" y="301.58" width="28" height="28" rx="5.08"/><rect class="cls-10" x="99" y="301.58" width="28" height="28" rx="5.08"/><rect class="cls-7" x="169" y="271.58" width="148.5" height="21.12" rx="7.5"/><rect class="cls-7" x="169" y="305.02" width="148.5" height="21.12" rx="7.5"/><rect class="cls-7" x="169" y="338.46" width="148.5" height="21.12" rx="7.5"/></g></g></svg>