<svg xmlns="http://www.w3.org/2000/svg" viewBox="0 0 46 36"><defs><style>.cls-1{fill:#8e6565;}.cls-2{fill:#6e4747;}.cls-3{fill:#724343;}.cls-4{fill:#b2b2b2;}.cls-5{fill:#ccc;}</style></defs><g id="Layer_2" data-name="Layer 2"><g id="_14-Digital_Art" data-name="14-Digital Art"><rect class="cls-1" width="46" height="36" rx="2"/><path class="cls-2" d="M40,6H14V30H40a1,1,0,0,0,1-1V7A1,1,0,0,0,40,6Z"/><circle class="cls-2" cx="7" cy="18" r="3"/><path class="cls-3" d="M42.87,4a1,1,0,0,1,0,1.41L40.05,8.28,37.22,5.45l2.83-2.82a1,1,0,0,1,1.41,0Z"/><polygon class="cls-4" points="40.05 8.28 23.78 24.55 18.83 26.67 20.95 21.72 37.22 5.45 40.05 8.28"/><path class="cls-5" d="M7,14a4,4,0,1,0,4,4A4,4,0,0,0,7,14Zm0,6a2,2,0,1,1,2-2A2,2,0,0,1,7,20Z"/><path class="cls-3" d="M5,11H9A1,1,0,0,0,9,9H5a1,1,0,0,0,0,2Z"/><path class="cls-3" d="M5,6H9A1,1,0,0,0,9,4H5A1,1,0,0,0,5,6Z"/><path class="cls-3" d="M9,25H5a1,1,0,0,0,0,2H9a1,1,0,0,0,0-2Z"/><path class="cls-3" d="M9,30H5a1,1,0,0,0,0,2H9a1,1,0,0,0,0-2Z"/><path class="cls-3" d="M13,31a1,1,0,0,0,2,0V5a1,1,0,0,0-2,0Z"/></g></g></svg>